%TF.GenerationSoftware,KiCad,Pcbnew,(5.1.12)-1*%
%TF.CreationDate,2024-04-15T13:26:30-04:00*%
%TF.ProjectId,QO100_TX,514f3130-305f-4545-982e-6b696361645f,rev?*%
%TF.SameCoordinates,Original*%
%TF.FileFunction,Copper,L1,Top*%
%TF.FilePolarity,Positive*%
%FSLAX46Y46*%
G04 Gerber Fmt 4.6, Leading zero omitted, Abs format (unit mm)*
G04 Created by KiCad (PCBNEW (5.1.12)-1) date 2024-04-15 13:26:30*
%MOMM*%
%LPD*%
G01*
G04 APERTURE LIST*
%TA.AperFunction,ComponentPad*%
%ADD10O,1.700000X1.700000*%
%TD*%
%TA.AperFunction,ComponentPad*%
%ADD11R,1.700000X1.700000*%
%TD*%
%TA.AperFunction,ComponentPad*%
%ADD12R,2.000000X2.000000*%
%TD*%
%TA.AperFunction,ComponentPad*%
%ADD13C,2.000000*%
%TD*%
%TA.AperFunction,ComponentPad*%
%ADD14R,3.200000X2.000000*%
%TD*%
%TA.AperFunction,ComponentPad*%
%ADD15R,2.600000X2.000000*%
%TD*%
%TA.AperFunction,ComponentPad*%
%ADD16R,2.000000X2.600000*%
%TD*%
%TA.AperFunction,ComponentPad*%
%ADD17C,5.600000*%
%TD*%
%TA.AperFunction,ViaPad*%
%ADD18C,1.000000*%
%TD*%
%TA.AperFunction,Conductor*%
%ADD19C,0.500000*%
%TD*%
%TA.AperFunction,Conductor*%
%ADD20C,0.254000*%
%TD*%
%TA.AperFunction,Conductor*%
%ADD21C,0.100000*%
%TD*%
G04 APERTURE END LIST*
D10*
%TO.P,J2,20*%
%TO.N,GNDPWR*%
X127260000Y-222000000D03*
%TO.P,J2,19*%
X124720000Y-222000000D03*
%TO.P,J2,18*%
X122180000Y-222000000D03*
%TO.P,J2,17*%
%TO.N,LCD_SDA*%
X119640000Y-222000000D03*
%TO.P,J2,16*%
%TO.N,LCD_SCL*%
X117100000Y-222000000D03*
%TO.P,J2,15*%
%TO.N,RST*%
X114560000Y-222000000D03*
%TO.P,J2,14*%
%TO.N,UART_RX*%
X112020000Y-222000000D03*
%TO.P,J2,13*%
%TO.N,UART_TX*%
X109480000Y-222000000D03*
%TO.P,J2,12*%
%TO.N,MCU_SDA*%
X106940000Y-222000000D03*
%TO.P,J2,11*%
%TO.N,MCU_SCL*%
X104400000Y-222000000D03*
%TO.P,J2,10*%
%TO.N,Net-(J2-Pad10)*%
X101860000Y-222000000D03*
%TO.P,J2,9*%
%TO.N,Net-(J2-Pad9)*%
X99320000Y-222000000D03*
%TO.P,J2,8*%
%TO.N,Net-(J2-Pad8)*%
X96780000Y-222000000D03*
%TO.P,J2,7*%
%TO.N,Net-(J2-Pad7)*%
X94240000Y-222000000D03*
%TO.P,J2,6*%
%TO.N,Net-(J2-Pad6)*%
X91700000Y-222000000D03*
%TO.P,J2,5*%
%TO.N,Net-(J2-Pad5)*%
X89160000Y-222000000D03*
%TO.P,J2,4*%
%TO.N,Net-(J2-Pad4)*%
X86620000Y-222000000D03*
%TO.P,J2,3*%
%TO.N,Net-(J2-Pad3)*%
X84080000Y-222000000D03*
%TO.P,J2,2*%
%TO.N,Net-(J2-Pad2)*%
X81540000Y-222000000D03*
D11*
%TO.P,J2,1*%
%TO.N,Net-(J2-Pad1)*%
X79000000Y-222000000D03*
%TD*%
D10*
%TO.P,J1,20*%
%TO.N,GNDPWR*%
X127360000Y-131000000D03*
%TO.P,J1,19*%
X124820000Y-131000000D03*
%TO.P,J1,18*%
X122280000Y-131000000D03*
%TO.P,J1,17*%
%TO.N,PTT*%
X119740000Y-131000000D03*
%TO.P,J1,16*%
%TO.N,ROT_SW*%
X117200000Y-131000000D03*
%TO.P,J1,15*%
%TO.N,ROT_B*%
X114660000Y-131000000D03*
%TO.P,J1,14*%
%TO.N,ROT_A*%
X112120000Y-131000000D03*
%TO.P,J1,13*%
%TO.N,KEY3*%
X109580000Y-131000000D03*
%TO.P,J1,12*%
%TO.N,KEY2*%
X107040000Y-131000000D03*
%TO.P,J1,11*%
%TO.N,KEY1*%
X104500000Y-131000000D03*
%TO.P,J1,10*%
%TO.N,+3V3*%
X101960000Y-131000000D03*
%TO.P,J1,9*%
%TO.N,+5V*%
X99420000Y-131000000D03*
%TO.P,J1,8*%
%TO.N,+12V*%
X96880000Y-131000000D03*
%TO.P,J1,7*%
%TO.N,Net-(J1-Pad7)*%
X94340000Y-131000000D03*
%TO.P,J1,6*%
%TO.N,Net-(J1-Pad6)*%
X91800000Y-131000000D03*
%TO.P,J1,5*%
%TO.N,Net-(J1-Pad5)*%
X89260000Y-131000000D03*
%TO.P,J1,4*%
%TO.N,Net-(J1-Pad4)*%
X86720000Y-131000000D03*
%TO.P,J1,3*%
%TO.N,Net-(J1-Pad3)*%
X84180000Y-131000000D03*
%TO.P,J1,2*%
%TO.N,Net-(J1-Pad2)*%
X81640000Y-131000000D03*
D11*
%TO.P,J1,1*%
%TO.N,Net-(J1-Pad1)*%
X79100000Y-131000000D03*
%TD*%
D12*
%TO.P,SW5,A*%
%TO.N,ROT_A*%
X95000000Y-189000000D03*
D13*
%TO.P,SW5,C*%
%TO.N,GNDPWR*%
X95000000Y-191500000D03*
%TO.P,SW5,B*%
%TO.N,ROT_B*%
X95000000Y-194000000D03*
D14*
%TO.P,SW5,MP*%
%TO.N,N/C*%
X102500000Y-185900000D03*
X102500000Y-197100000D03*
D13*
%TO.P,SW5,S2*%
%TO.N,GNDPWR*%
X109500000Y-189000000D03*
%TO.P,SW5,S1*%
%TO.N,ROT_SW*%
X109500000Y-194000000D03*
%TD*%
%TO.P,SW4,1*%
%TO.N,GNDPWR*%
X141500000Y-190000000D03*
%TO.P,SW4,2*%
%TO.N,PTT*%
X141500000Y-194500000D03*
%TO.P,SW4,1*%
%TO.N,GNDPWR*%
X135000000Y-190000000D03*
%TO.P,SW4,2*%
%TO.N,PTT*%
X135000000Y-194500000D03*
%TD*%
%TO.P,SW3,1*%
%TO.N,GNDPWR*%
X125500000Y-190000000D03*
%TO.P,SW3,2*%
%TO.N,KEY3*%
X125500000Y-194500000D03*
%TO.P,SW3,1*%
%TO.N,GNDPWR*%
X119000000Y-190000000D03*
%TO.P,SW3,2*%
%TO.N,KEY3*%
X119000000Y-194500000D03*
%TD*%
%TO.P,SW2,1*%
%TO.N,GNDPWR*%
X85500000Y-190000000D03*
%TO.P,SW2,2*%
%TO.N,KEY2*%
X85500000Y-194500000D03*
%TO.P,SW2,1*%
%TO.N,GNDPWR*%
X79000000Y-190000000D03*
%TO.P,SW2,2*%
%TO.N,KEY2*%
X79000000Y-194500000D03*
%TD*%
%TO.P,SW1,1*%
%TO.N,GNDPWR*%
X70500000Y-190000000D03*
%TO.P,SW1,2*%
%TO.N,KEY1*%
X70500000Y-194500000D03*
%TO.P,SW1,1*%
%TO.N,GNDPWR*%
X64000000Y-190000000D03*
%TO.P,SW1,2*%
%TO.N,KEY1*%
X64000000Y-194500000D03*
%TD*%
D15*
%TO.P,J4,2*%
%TO.N,GNDPWR*%
X70000000Y-130100000D03*
%TO.P,J4,1*%
%TO.N,+12V*%
X70000000Y-136100000D03*
D16*
%TO.P,J4,3*%
%TO.N,Net-(J4-Pad3)*%
X65300000Y-133100000D03*
%TD*%
D10*
%TO.P,J3,4*%
%TO.N,GNDPWR*%
X57400000Y-144180000D03*
%TO.P,J3,3*%
%TO.N,+5V*%
X57400000Y-146720000D03*
%TO.P,J3,2*%
%TO.N,LCD_SDA*%
X57400000Y-149260000D03*
D11*
%TO.P,J3,1*%
%TO.N,LCD_SCL*%
X57400000Y-151800000D03*
%TD*%
D17*
%TO.P,H4,1*%
%TO.N,GNDPWR*%
X148000000Y-221000000D03*
%TD*%
%TO.P,H3,1*%
%TO.N,GNDPWR*%
X59000000Y-221000000D03*
%TD*%
%TO.P,H2,1*%
%TO.N,GNDPWR*%
X148000000Y-132000000D03*
%TD*%
%TO.P,H1,1*%
%TO.N,GNDPWR*%
X59000000Y-132000000D03*
%TD*%
D18*
%TO.N,GNDPWR*%
X101800000Y-144800000D03*
X98100000Y-147200000D03*
X98000000Y-136600000D03*
X101700000Y-155900000D03*
X103100000Y-173100000D03*
X103400000Y-181200000D03*
X102500000Y-192200000D03*
X101000000Y-202400000D03*
X98300000Y-218800000D03*
X97800000Y-202800000D03*
X124000000Y-136000000D03*
X132600000Y-135600000D03*
X142900000Y-135600000D03*
X147700000Y-147800000D03*
X139600000Y-153600000D03*
X134200000Y-148800000D03*
X128200000Y-158300000D03*
X125400000Y-150000000D03*
X128900000Y-170700000D03*
X140700000Y-165400000D03*
X147500000Y-169900000D03*
X145400000Y-180400000D03*
X130800000Y-177300000D03*
X115100000Y-203100000D03*
X131200000Y-203100000D03*
X146800000Y-202100000D03*
X131600000Y-209600000D03*
X119500000Y-204800000D03*
X126100000Y-214700000D03*
X135400000Y-217600000D03*
X143800000Y-208900000D03*
X60300000Y-205500000D03*
X66000000Y-214700000D03*
X77900000Y-218200000D03*
X86700000Y-215300000D03*
X93400000Y-203500000D03*
X81900000Y-202100000D03*
X74800000Y-201300000D03*
X62100000Y-180600000D03*
X75100000Y-178400000D03*
X86000000Y-171300000D03*
X92100000Y-161900000D03*
X91300000Y-155500000D03*
X86700000Y-162800000D03*
X73200000Y-163800000D03*
X67400000Y-155700000D03*
X62900000Y-153800000D03*
X64200000Y-164700000D03*
X75200000Y-171500000D03*
X76400000Y-153400000D03*
X88300000Y-151600000D03*
X78300000Y-141800000D03*
X89900000Y-141300000D03*
X58000000Y-137900000D03*
X71200000Y-142400000D03*
X124100000Y-144500000D03*
X109000000Y-134900000D03*
X110000000Y-151200000D03*
X111800000Y-165300000D03*
X114100000Y-172800000D03*
X112300000Y-182700000D03*
X124500000Y-174200000D03*
X124800000Y-164100000D03*
X121200000Y-181000000D03*
X130800000Y-190100000D03*
X130300000Y-195400000D03*
X123500000Y-199200000D03*
X122100000Y-192000000D03*
X122600000Y-187600000D03*
X114800000Y-194300000D03*
X111600000Y-198700000D03*
X105400000Y-215400000D03*
X110900000Y-217300000D03*
X106300000Y-205900000D03*
X117700000Y-210400000D03*
X135800000Y-223000000D03*
X72500000Y-222100000D03*
X59200000Y-212500000D03*
X69700000Y-198900000D03*
X72400000Y-183800000D03*
X67100000Y-191600000D03*
%TD*%
D19*
%TO.N,+12V*%
X96780000Y-131060000D02*
X96840000Y-131000000D01*
%TO.N,Net-(J2-Pad9)*%
X99380000Y-221940000D02*
X99320000Y-222000000D01*
%TD*%
D20*
%TO.N,GNDPWR*%
X57686994Y-128807870D02*
X57089470Y-129125361D01*
X57075308Y-129134823D01*
X56763124Y-129583519D01*
X59000000Y-131820395D01*
X61236876Y-129583519D01*
X60924692Y-129134823D01*
X60328741Y-128814388D01*
X59824276Y-128660000D01*
X68239636Y-128660000D01*
X68169463Y-128745506D01*
X68110498Y-128855820D01*
X68074188Y-128975518D01*
X68061928Y-129100000D01*
X68065000Y-129814250D01*
X68223750Y-129973000D01*
X69873000Y-129973000D01*
X69873000Y-129953000D01*
X70127000Y-129953000D01*
X70127000Y-129973000D01*
X71776250Y-129973000D01*
X71935000Y-129814250D01*
X71938072Y-129100000D01*
X71925812Y-128975518D01*
X71889502Y-128855820D01*
X71830537Y-128745506D01*
X71760364Y-128660000D01*
X147178821Y-128660000D01*
X146686994Y-128807870D01*
X146089470Y-129125361D01*
X146075308Y-129134823D01*
X145763124Y-129583519D01*
X148000000Y-131820395D01*
X150236876Y-129583519D01*
X149924692Y-129134823D01*
X149328741Y-128814388D01*
X148824276Y-128660000D01*
X148967721Y-128660000D01*
X149453893Y-128707670D01*
X149890498Y-128839489D01*
X150293185Y-129053600D01*
X150646612Y-129341848D01*
X150937327Y-129693261D01*
X151154242Y-130094439D01*
X151289106Y-130530113D01*
X151340000Y-131014344D01*
X151340000Y-131178821D01*
X151192130Y-130686994D01*
X150874639Y-130089470D01*
X150865177Y-130075308D01*
X150416481Y-129763124D01*
X148179605Y-132000000D01*
X150416481Y-134236876D01*
X150865177Y-133924692D01*
X151185612Y-133328741D01*
X151340000Y-132824276D01*
X151340001Y-220178824D01*
X151192130Y-219686994D01*
X150874639Y-219089470D01*
X150865177Y-219075308D01*
X150416481Y-218763124D01*
X148179605Y-221000000D01*
X150416481Y-223236876D01*
X150865177Y-222924692D01*
X151185612Y-222328741D01*
X151340001Y-221824272D01*
X151340001Y-221967711D01*
X151292330Y-222453894D01*
X151160512Y-222890497D01*
X150946399Y-223293186D01*
X150658150Y-223646613D01*
X150306739Y-223937327D01*
X149905564Y-224154240D01*
X149469886Y-224289106D01*
X148985664Y-224340000D01*
X148821179Y-224340000D01*
X149313006Y-224192130D01*
X149910530Y-223874639D01*
X149924692Y-223865177D01*
X150236876Y-223416481D01*
X148000000Y-221179605D01*
X145763124Y-223416481D01*
X146075308Y-223865177D01*
X146671259Y-224185612D01*
X147175724Y-224340000D01*
X59821179Y-224340000D01*
X60313006Y-224192130D01*
X60910530Y-223874639D01*
X60924692Y-223865177D01*
X61236876Y-223416481D01*
X59000000Y-221179605D01*
X56763124Y-223416481D01*
X57075308Y-223865177D01*
X57671259Y-224185612D01*
X58175724Y-224340000D01*
X58032279Y-224340000D01*
X57546106Y-224292330D01*
X57109503Y-224160512D01*
X56706814Y-223946399D01*
X56353387Y-223658150D01*
X56062673Y-223306739D01*
X55845760Y-222905564D01*
X55710894Y-222469886D01*
X55660000Y-221985664D01*
X55660000Y-221821179D01*
X55807870Y-222313006D01*
X56125361Y-222910530D01*
X56134823Y-222924692D01*
X56583519Y-223236876D01*
X58820395Y-221000000D01*
X59179605Y-221000000D01*
X61416481Y-223236876D01*
X61865177Y-222924692D01*
X62185612Y-222328741D01*
X62383626Y-221681727D01*
X62437322Y-221150000D01*
X77511928Y-221150000D01*
X77511928Y-222850000D01*
X77524188Y-222974482D01*
X77560498Y-223094180D01*
X77619463Y-223204494D01*
X77698815Y-223301185D01*
X77795506Y-223380537D01*
X77905820Y-223439502D01*
X78025518Y-223475812D01*
X78150000Y-223488072D01*
X79850000Y-223488072D01*
X79974482Y-223475812D01*
X80094180Y-223439502D01*
X80204494Y-223380537D01*
X80301185Y-223301185D01*
X80380537Y-223204494D01*
X80439502Y-223094180D01*
X80461513Y-223021620D01*
X80593368Y-223153475D01*
X80836589Y-223315990D01*
X81106842Y-223427932D01*
X81393740Y-223485000D01*
X81686260Y-223485000D01*
X81973158Y-223427932D01*
X82243411Y-223315990D01*
X82486632Y-223153475D01*
X82693475Y-222946632D01*
X82810000Y-222772240D01*
X82926525Y-222946632D01*
X83133368Y-223153475D01*
X83376589Y-223315990D01*
X83646842Y-223427932D01*
X83933740Y-223485000D01*
X84226260Y-223485000D01*
X84513158Y-223427932D01*
X84783411Y-223315990D01*
X85026632Y-223153475D01*
X85233475Y-222946632D01*
X85350000Y-222772240D01*
X85466525Y-222946632D01*
X85673368Y-223153475D01*
X85916589Y-223315990D01*
X86186842Y-223427932D01*
X86473740Y-223485000D01*
X86766260Y-223485000D01*
X87053158Y-223427932D01*
X87323411Y-223315990D01*
X87566632Y-223153475D01*
X87773475Y-222946632D01*
X87890000Y-222772240D01*
X88006525Y-222946632D01*
X88213368Y-223153475D01*
X88456589Y-223315990D01*
X88726842Y-223427932D01*
X89013740Y-223485000D01*
X89306260Y-223485000D01*
X89593158Y-223427932D01*
X89863411Y-223315990D01*
X90106632Y-223153475D01*
X90313475Y-222946632D01*
X90430000Y-222772240D01*
X90546525Y-222946632D01*
X90753368Y-223153475D01*
X90996589Y-223315990D01*
X91266842Y-223427932D01*
X91553740Y-223485000D01*
X91846260Y-223485000D01*
X92133158Y-223427932D01*
X92403411Y-223315990D01*
X92646632Y-223153475D01*
X92853475Y-222946632D01*
X92970000Y-222772240D01*
X93086525Y-222946632D01*
X93293368Y-223153475D01*
X93536589Y-223315990D01*
X93806842Y-223427932D01*
X94093740Y-223485000D01*
X94386260Y-223485000D01*
X94673158Y-223427932D01*
X94943411Y-223315990D01*
X95186632Y-223153475D01*
X95393475Y-222946632D01*
X95510000Y-222772240D01*
X95626525Y-222946632D01*
X95833368Y-223153475D01*
X96076589Y-223315990D01*
X96346842Y-223427932D01*
X96633740Y-223485000D01*
X96926260Y-223485000D01*
X97213158Y-223427932D01*
X97483411Y-223315990D01*
X97726632Y-223153475D01*
X97933475Y-222946632D01*
X98050000Y-222772240D01*
X98166525Y-222946632D01*
X98373368Y-223153475D01*
X98616589Y-223315990D01*
X98886842Y-223427932D01*
X99173740Y-223485000D01*
X99466260Y-223485000D01*
X99753158Y-223427932D01*
X100023411Y-223315990D01*
X100266632Y-223153475D01*
X100473475Y-222946632D01*
X100590000Y-222772240D01*
X100706525Y-222946632D01*
X100913368Y-223153475D01*
X101156589Y-223315990D01*
X101426842Y-223427932D01*
X101713740Y-223485000D01*
X102006260Y-223485000D01*
X102293158Y-223427932D01*
X102563411Y-223315990D01*
X102806632Y-223153475D01*
X103013475Y-222946632D01*
X103130000Y-222772240D01*
X103246525Y-222946632D01*
X103453368Y-223153475D01*
X103696589Y-223315990D01*
X103966842Y-223427932D01*
X104253740Y-223485000D01*
X104546260Y-223485000D01*
X104833158Y-223427932D01*
X105103411Y-223315990D01*
X105346632Y-223153475D01*
X105553475Y-222946632D01*
X105670000Y-222772240D01*
X105786525Y-222946632D01*
X105993368Y-223153475D01*
X106236589Y-223315990D01*
X106506842Y-223427932D01*
X106793740Y-223485000D01*
X107086260Y-223485000D01*
X107373158Y-223427932D01*
X107643411Y-223315990D01*
X107886632Y-223153475D01*
X108093475Y-222946632D01*
X108210000Y-222772240D01*
X108326525Y-222946632D01*
X108533368Y-223153475D01*
X108776589Y-223315990D01*
X109046842Y-223427932D01*
X109333740Y-223485000D01*
X109626260Y-223485000D01*
X109913158Y-223427932D01*
X110183411Y-223315990D01*
X110426632Y-223153475D01*
X110633475Y-222946632D01*
X110750000Y-222772240D01*
X110866525Y-222946632D01*
X111073368Y-223153475D01*
X111316589Y-223315990D01*
X111586842Y-223427932D01*
X111873740Y-223485000D01*
X112166260Y-223485000D01*
X112453158Y-223427932D01*
X112723411Y-223315990D01*
X112966632Y-223153475D01*
X113173475Y-222946632D01*
X113290000Y-222772240D01*
X113406525Y-222946632D01*
X113613368Y-223153475D01*
X113856589Y-223315990D01*
X114126842Y-223427932D01*
X114413740Y-223485000D01*
X114706260Y-223485000D01*
X114993158Y-223427932D01*
X115263411Y-223315990D01*
X115506632Y-223153475D01*
X115713475Y-222946632D01*
X115830000Y-222772240D01*
X115946525Y-222946632D01*
X116153368Y-223153475D01*
X116396589Y-223315990D01*
X116666842Y-223427932D01*
X116953740Y-223485000D01*
X117246260Y-223485000D01*
X117533158Y-223427932D01*
X117803411Y-223315990D01*
X118046632Y-223153475D01*
X118253475Y-222946632D01*
X118370000Y-222772240D01*
X118486525Y-222946632D01*
X118693368Y-223153475D01*
X118936589Y-223315990D01*
X119206842Y-223427932D01*
X119493740Y-223485000D01*
X119786260Y-223485000D01*
X120073158Y-223427932D01*
X120343411Y-223315990D01*
X120586632Y-223153475D01*
X120793475Y-222946632D01*
X120915195Y-222764466D01*
X120984822Y-222881355D01*
X121179731Y-223097588D01*
X121413080Y-223271641D01*
X121675901Y-223396825D01*
X121823110Y-223441476D01*
X122053000Y-223320155D01*
X122053000Y-222127000D01*
X122307000Y-222127000D01*
X122307000Y-223320155D01*
X122536890Y-223441476D01*
X122684099Y-223396825D01*
X122946920Y-223271641D01*
X123180269Y-223097588D01*
X123375178Y-222881355D01*
X123450000Y-222755745D01*
X123524822Y-222881355D01*
X123719731Y-223097588D01*
X123953080Y-223271641D01*
X124215901Y-223396825D01*
X124363110Y-223441476D01*
X124593000Y-223320155D01*
X124593000Y-222127000D01*
X124847000Y-222127000D01*
X124847000Y-223320155D01*
X125076890Y-223441476D01*
X125224099Y-223396825D01*
X125486920Y-223271641D01*
X125720269Y-223097588D01*
X125915178Y-222881355D01*
X125990000Y-222755745D01*
X126064822Y-222881355D01*
X126259731Y-223097588D01*
X126493080Y-223271641D01*
X126755901Y-223396825D01*
X126903110Y-223441476D01*
X127133000Y-223320155D01*
X127133000Y-222127000D01*
X127387000Y-222127000D01*
X127387000Y-223320155D01*
X127616890Y-223441476D01*
X127764099Y-223396825D01*
X128026920Y-223271641D01*
X128260269Y-223097588D01*
X128455178Y-222881355D01*
X128604157Y-222631252D01*
X128701481Y-222356891D01*
X128580814Y-222127000D01*
X127387000Y-222127000D01*
X127133000Y-222127000D01*
X124847000Y-222127000D01*
X124593000Y-222127000D01*
X122307000Y-222127000D01*
X122053000Y-222127000D01*
X122033000Y-222127000D01*
X122033000Y-221873000D01*
X122053000Y-221873000D01*
X122053000Y-220679845D01*
X122307000Y-220679845D01*
X122307000Y-221873000D01*
X124593000Y-221873000D01*
X124593000Y-220679845D01*
X124847000Y-220679845D01*
X124847000Y-221873000D01*
X127133000Y-221873000D01*
X127133000Y-220679845D01*
X127387000Y-220679845D01*
X127387000Y-221873000D01*
X128580814Y-221873000D01*
X128701481Y-221643109D01*
X128604157Y-221368748D01*
X128455178Y-221118645D01*
X128340558Y-220991484D01*
X144548390Y-220991484D01*
X144613051Y-221665023D01*
X144807870Y-222313006D01*
X145125361Y-222910530D01*
X145134823Y-222924692D01*
X145583519Y-223236876D01*
X147820395Y-221000000D01*
X145583519Y-218763124D01*
X145134823Y-219075308D01*
X144814388Y-219671259D01*
X144616374Y-220318273D01*
X144548390Y-220991484D01*
X128340558Y-220991484D01*
X128260269Y-220902412D01*
X128026920Y-220728359D01*
X127764099Y-220603175D01*
X127616890Y-220558524D01*
X127387000Y-220679845D01*
X127133000Y-220679845D01*
X126903110Y-220558524D01*
X126755901Y-220603175D01*
X126493080Y-220728359D01*
X126259731Y-220902412D01*
X126064822Y-221118645D01*
X125990000Y-221244255D01*
X125915178Y-221118645D01*
X125720269Y-220902412D01*
X125486920Y-220728359D01*
X125224099Y-220603175D01*
X125076890Y-220558524D01*
X124847000Y-220679845D01*
X124593000Y-220679845D01*
X124363110Y-220558524D01*
X124215901Y-220603175D01*
X123953080Y-220728359D01*
X123719731Y-220902412D01*
X123524822Y-221118645D01*
X123450000Y-221244255D01*
X123375178Y-221118645D01*
X123180269Y-220902412D01*
X122946920Y-220728359D01*
X122684099Y-220603175D01*
X122536890Y-220558524D01*
X122307000Y-220679845D01*
X122053000Y-220679845D01*
X121823110Y-220558524D01*
X121675901Y-220603175D01*
X121413080Y-220728359D01*
X121179731Y-220902412D01*
X120984822Y-221118645D01*
X120915195Y-221235534D01*
X120793475Y-221053368D01*
X120586632Y-220846525D01*
X120343411Y-220684010D01*
X120073158Y-220572068D01*
X119786260Y-220515000D01*
X119493740Y-220515000D01*
X119206842Y-220572068D01*
X118936589Y-220684010D01*
X118693368Y-220846525D01*
X118486525Y-221053368D01*
X118370000Y-221227760D01*
X118253475Y-221053368D01*
X118046632Y-220846525D01*
X117803411Y-220684010D01*
X117533158Y-220572068D01*
X117246260Y-220515000D01*
X116953740Y-220515000D01*
X116666842Y-220572068D01*
X116396589Y-220684010D01*
X116153368Y-220846525D01*
X115946525Y-221053368D01*
X115830000Y-221227760D01*
X115713475Y-221053368D01*
X115506632Y-220846525D01*
X115263411Y-220684010D01*
X114993158Y-220572068D01*
X114706260Y-220515000D01*
X114413740Y-220515000D01*
X114126842Y-220572068D01*
X113856589Y-220684010D01*
X113613368Y-220846525D01*
X113406525Y-221053368D01*
X113290000Y-221227760D01*
X113173475Y-221053368D01*
X112966632Y-220846525D01*
X112723411Y-220684010D01*
X112453158Y-220572068D01*
X112166260Y-220515000D01*
X111873740Y-220515000D01*
X111586842Y-220572068D01*
X111316589Y-220684010D01*
X111073368Y-220846525D01*
X110866525Y-221053368D01*
X110750000Y-221227760D01*
X110633475Y-221053368D01*
X110426632Y-220846525D01*
X110183411Y-220684010D01*
X109913158Y-220572068D01*
X109626260Y-220515000D01*
X109333740Y-220515000D01*
X109046842Y-220572068D01*
X108776589Y-220684010D01*
X108533368Y-220846525D01*
X108326525Y-221053368D01*
X108210000Y-221227760D01*
X108093475Y-221053368D01*
X107886632Y-220846525D01*
X107643411Y-220684010D01*
X107373158Y-220572068D01*
X107086260Y-220515000D01*
X106793740Y-220515000D01*
X106506842Y-220572068D01*
X106236589Y-220684010D01*
X105993368Y-220846525D01*
X105786525Y-221053368D01*
X105670000Y-221227760D01*
X105553475Y-221053368D01*
X105346632Y-220846525D01*
X105103411Y-220684010D01*
X104833158Y-220572068D01*
X104546260Y-220515000D01*
X104253740Y-220515000D01*
X103966842Y-220572068D01*
X103696589Y-220684010D01*
X103453368Y-220846525D01*
X103246525Y-221053368D01*
X103130000Y-221227760D01*
X103013475Y-221053368D01*
X102806632Y-220846525D01*
X102563411Y-220684010D01*
X102293158Y-220572068D01*
X102006260Y-220515000D01*
X101713740Y-220515000D01*
X101426842Y-220572068D01*
X101156589Y-220684010D01*
X100913368Y-220846525D01*
X100706525Y-221053368D01*
X100590000Y-221227760D01*
X100473475Y-221053368D01*
X100266632Y-220846525D01*
X100023411Y-220684010D01*
X99753158Y-220572068D01*
X99466260Y-220515000D01*
X99173740Y-220515000D01*
X98886842Y-220572068D01*
X98616589Y-220684010D01*
X98373368Y-220846525D01*
X98166525Y-221053368D01*
X98050000Y-221227760D01*
X97933475Y-221053368D01*
X97726632Y-220846525D01*
X97483411Y-220684010D01*
X97213158Y-220572068D01*
X96926260Y-220515000D01*
X96633740Y-220515000D01*
X96346842Y-220572068D01*
X96076589Y-220684010D01*
X95833368Y-220846525D01*
X95626525Y-221053368D01*
X95510000Y-221227760D01*
X95393475Y-221053368D01*
X95186632Y-220846525D01*
X94943411Y-220684010D01*
X94673158Y-220572068D01*
X94386260Y-220515000D01*
X94093740Y-220515000D01*
X93806842Y-220572068D01*
X93536589Y-220684010D01*
X93293368Y-220846525D01*
X93086525Y-221053368D01*
X92970000Y-221227760D01*
X92853475Y-221053368D01*
X92646632Y-220846525D01*
X92403411Y-220684010D01*
X92133158Y-220572068D01*
X91846260Y-220515000D01*
X91553740Y-220515000D01*
X91266842Y-220572068D01*
X90996589Y-220684010D01*
X90753368Y-220846525D01*
X90546525Y-221053368D01*
X90430000Y-221227760D01*
X90313475Y-221053368D01*
X90106632Y-220846525D01*
X89863411Y-220684010D01*
X89593158Y-220572068D01*
X89306260Y-220515000D01*
X89013740Y-220515000D01*
X88726842Y-220572068D01*
X88456589Y-220684010D01*
X88213368Y-220846525D01*
X88006525Y-221053368D01*
X87890000Y-221227760D01*
X87773475Y-221053368D01*
X87566632Y-220846525D01*
X87323411Y-220684010D01*
X87053158Y-220572068D01*
X86766260Y-220515000D01*
X86473740Y-220515000D01*
X86186842Y-220572068D01*
X85916589Y-220684010D01*
X85673368Y-220846525D01*
X85466525Y-221053368D01*
X85350000Y-221227760D01*
X85233475Y-221053368D01*
X85026632Y-220846525D01*
X84783411Y-220684010D01*
X84513158Y-220572068D01*
X84226260Y-220515000D01*
X83933740Y-220515000D01*
X83646842Y-220572068D01*
X83376589Y-220684010D01*
X83133368Y-220846525D01*
X82926525Y-221053368D01*
X82810000Y-221227760D01*
X82693475Y-221053368D01*
X82486632Y-220846525D01*
X82243411Y-220684010D01*
X81973158Y-220572068D01*
X81686260Y-220515000D01*
X81393740Y-220515000D01*
X81106842Y-220572068D01*
X80836589Y-220684010D01*
X80593368Y-220846525D01*
X80461513Y-220978380D01*
X80439502Y-220905820D01*
X80380537Y-220795506D01*
X80301185Y-220698815D01*
X80204494Y-220619463D01*
X80094180Y-220560498D01*
X79974482Y-220524188D01*
X79850000Y-220511928D01*
X78150000Y-220511928D01*
X78025518Y-220524188D01*
X77905820Y-220560498D01*
X77795506Y-220619463D01*
X77698815Y-220698815D01*
X77619463Y-220795506D01*
X77560498Y-220905820D01*
X77524188Y-221025518D01*
X77511928Y-221150000D01*
X62437322Y-221150000D01*
X62451610Y-221008516D01*
X62386949Y-220334977D01*
X62192130Y-219686994D01*
X61874639Y-219089470D01*
X61865177Y-219075308D01*
X61416481Y-218763124D01*
X59179605Y-221000000D01*
X58820395Y-221000000D01*
X56583519Y-218763124D01*
X56134823Y-219075308D01*
X55814388Y-219671259D01*
X55660000Y-220175724D01*
X55660000Y-218583519D01*
X56763124Y-218583519D01*
X59000000Y-220820395D01*
X61236876Y-218583519D01*
X145763124Y-218583519D01*
X148000000Y-220820395D01*
X150236876Y-218583519D01*
X149924692Y-218134823D01*
X149328741Y-217814388D01*
X148681727Y-217616374D01*
X148008516Y-217548390D01*
X147334977Y-217613051D01*
X146686994Y-217807870D01*
X146089470Y-218125361D01*
X146075308Y-218134823D01*
X145763124Y-218583519D01*
X61236876Y-218583519D01*
X60924692Y-218134823D01*
X60328741Y-217814388D01*
X59681727Y-217616374D01*
X59008516Y-217548390D01*
X58334977Y-217613051D01*
X57686994Y-217807870D01*
X57089470Y-218125361D01*
X57075308Y-218134823D01*
X56763124Y-218583519D01*
X55660000Y-218583519D01*
X55660000Y-194338967D01*
X62365000Y-194338967D01*
X62365000Y-194661033D01*
X62427832Y-194976912D01*
X62551082Y-195274463D01*
X62730013Y-195542252D01*
X62957748Y-195769987D01*
X63225537Y-195948918D01*
X63523088Y-196072168D01*
X63838967Y-196135000D01*
X64161033Y-196135000D01*
X64476912Y-196072168D01*
X64774463Y-195948918D01*
X65042252Y-195769987D01*
X65269987Y-195542252D01*
X65448918Y-195274463D01*
X65572168Y-194976912D01*
X65635000Y-194661033D01*
X65635000Y-194338967D01*
X68865000Y-194338967D01*
X68865000Y-194661033D01*
X68927832Y-194976912D01*
X69051082Y-195274463D01*
X69230013Y-195542252D01*
X69457748Y-195769987D01*
X69725537Y-195948918D01*
X70023088Y-196072168D01*
X70338967Y-196135000D01*
X70661033Y-196135000D01*
X70976912Y-196072168D01*
X71274463Y-195948918D01*
X71542252Y-195769987D01*
X71769987Y-195542252D01*
X71948918Y-195274463D01*
X72072168Y-194976912D01*
X72135000Y-194661033D01*
X72135000Y-194338967D01*
X77365000Y-194338967D01*
X77365000Y-194661033D01*
X77427832Y-194976912D01*
X77551082Y-195274463D01*
X77730013Y-195542252D01*
X77957748Y-195769987D01*
X78225537Y-195948918D01*
X78523088Y-196072168D01*
X78838967Y-196135000D01*
X79161033Y-196135000D01*
X79476912Y-196072168D01*
X79774463Y-195948918D01*
X80042252Y-195769987D01*
X80269987Y-195542252D01*
X80448918Y-195274463D01*
X80572168Y-194976912D01*
X80635000Y-194661033D01*
X80635000Y-194338967D01*
X83865000Y-194338967D01*
X83865000Y-194661033D01*
X83927832Y-194976912D01*
X84051082Y-195274463D01*
X84230013Y-195542252D01*
X84457748Y-195769987D01*
X84725537Y-195948918D01*
X85023088Y-196072168D01*
X85338967Y-196135000D01*
X85661033Y-196135000D01*
X85836990Y-196100000D01*
X100261928Y-196100000D01*
X100261928Y-198100000D01*
X100274188Y-198224482D01*
X100310498Y-198344180D01*
X100369463Y-198454494D01*
X100448815Y-198551185D01*
X100545506Y-198630537D01*
X100655820Y-198689502D01*
X100775518Y-198725812D01*
X100900000Y-198738072D01*
X104100000Y-198738072D01*
X104224482Y-198725812D01*
X104344180Y-198689502D01*
X104454494Y-198630537D01*
X104551185Y-198551185D01*
X104630537Y-198454494D01*
X104689502Y-198344180D01*
X104725812Y-198224482D01*
X104738072Y-198100000D01*
X104738072Y-196100000D01*
X104725812Y-195975518D01*
X104689502Y-195855820D01*
X104630537Y-195745506D01*
X104551185Y-195648815D01*
X104454494Y-195569463D01*
X104344180Y-195510498D01*
X104224482Y-195474188D01*
X104100000Y-195461928D01*
X100900000Y-195461928D01*
X100775518Y-195474188D01*
X100655820Y-195510498D01*
X100545506Y-195569463D01*
X100448815Y-195648815D01*
X100369463Y-195745506D01*
X100310498Y-195855820D01*
X100274188Y-195975518D01*
X100261928Y-196100000D01*
X85836990Y-196100000D01*
X85976912Y-196072168D01*
X86274463Y-195948918D01*
X86542252Y-195769987D01*
X86769987Y-195542252D01*
X86948918Y-195274463D01*
X87072168Y-194976912D01*
X87135000Y-194661033D01*
X87135000Y-194338967D01*
X87072168Y-194023088D01*
X86995903Y-193838967D01*
X93365000Y-193838967D01*
X93365000Y-194161033D01*
X93427832Y-194476912D01*
X93551082Y-194774463D01*
X93730013Y-195042252D01*
X93957748Y-195269987D01*
X94225537Y-195448918D01*
X94523088Y-195572168D01*
X94838967Y-195635000D01*
X95161033Y-195635000D01*
X95476912Y-195572168D01*
X95774463Y-195448918D01*
X96042252Y-195269987D01*
X96269987Y-195042252D01*
X96448918Y-194774463D01*
X96572168Y-194476912D01*
X96635000Y-194161033D01*
X96635000Y-193838967D01*
X107865000Y-193838967D01*
X107865000Y-194161033D01*
X107927832Y-194476912D01*
X108051082Y-194774463D01*
X108230013Y-195042252D01*
X108457748Y-195269987D01*
X108725537Y-195448918D01*
X109023088Y-195572168D01*
X109338967Y-195635000D01*
X109661033Y-195635000D01*
X109976912Y-195572168D01*
X110274463Y-195448918D01*
X110542252Y-195269987D01*
X110769987Y-195042252D01*
X110948918Y-194774463D01*
X111072168Y-194476912D01*
X111099606Y-194338967D01*
X117365000Y-194338967D01*
X117365000Y-194661033D01*
X117427832Y-194976912D01*
X117551082Y-195274463D01*
X117730013Y-195542252D01*
X117957748Y-195769987D01*
X118225537Y-195948918D01*
X118523088Y-196072168D01*
X118838967Y-196135000D01*
X119161033Y-196135000D01*
X119476912Y-196072168D01*
X119774463Y-195948918D01*
X120042252Y-195769987D01*
X120269987Y-195542252D01*
X120448918Y-195274463D01*
X120572168Y-194976912D01*
X120635000Y-194661033D01*
X120635000Y-194338967D01*
X123865000Y-194338967D01*
X123865000Y-194661033D01*
X123927832Y-194976912D01*
X124051082Y-195274463D01*
X124230013Y-195542252D01*
X124457748Y-195769987D01*
X124725537Y-195948918D01*
X125023088Y-196072168D01*
X125338967Y-196135000D01*
X125661033Y-196135000D01*
X125976912Y-196072168D01*
X126274463Y-195948918D01*
X126542252Y-195769987D01*
X126769987Y-195542252D01*
X126948918Y-195274463D01*
X127072168Y-194976912D01*
X127135000Y-194661033D01*
X127135000Y-194338967D01*
X133365000Y-194338967D01*
X133365000Y-194661033D01*
X133427832Y-194976912D01*
X133551082Y-195274463D01*
X133730013Y-195542252D01*
X133957748Y-195769987D01*
X134225537Y-195948918D01*
X134523088Y-196072168D01*
X134838967Y-196135000D01*
X135161033Y-196135000D01*
X135476912Y-196072168D01*
X135774463Y-195948918D01*
X136042252Y-195769987D01*
X136269987Y-195542252D01*
X136448918Y-195274463D01*
X136572168Y-194976912D01*
X136635000Y-194661033D01*
X136635000Y-194338967D01*
X139865000Y-194338967D01*
X139865000Y-194661033D01*
X139927832Y-194976912D01*
X140051082Y-195274463D01*
X140230013Y-195542252D01*
X140457748Y-195769987D01*
X140725537Y-195948918D01*
X141023088Y-196072168D01*
X141338967Y-196135000D01*
X141661033Y-196135000D01*
X141976912Y-196072168D01*
X142274463Y-195948918D01*
X142542252Y-195769987D01*
X142769987Y-195542252D01*
X142948918Y-195274463D01*
X143072168Y-194976912D01*
X143135000Y-194661033D01*
X143135000Y-194338967D01*
X143072168Y-194023088D01*
X142948918Y-193725537D01*
X142769987Y-193457748D01*
X142542252Y-193230013D01*
X142274463Y-193051082D01*
X141976912Y-192927832D01*
X141661033Y-192865000D01*
X141338967Y-192865000D01*
X141023088Y-192927832D01*
X140725537Y-193051082D01*
X140457748Y-193230013D01*
X140230013Y-193457748D01*
X140051082Y-193725537D01*
X139927832Y-194023088D01*
X139865000Y-194338967D01*
X136635000Y-194338967D01*
X136572168Y-194023088D01*
X136448918Y-193725537D01*
X136269987Y-193457748D01*
X136042252Y-193230013D01*
X135774463Y-193051082D01*
X135476912Y-192927832D01*
X135161033Y-192865000D01*
X134838967Y-192865000D01*
X134523088Y-192927832D01*
X134225537Y-193051082D01*
X133957748Y-193230013D01*
X133730013Y-193457748D01*
X133551082Y-193725537D01*
X133427832Y-194023088D01*
X133365000Y-194338967D01*
X127135000Y-194338967D01*
X127072168Y-194023088D01*
X126948918Y-193725537D01*
X126769987Y-193457748D01*
X126542252Y-193230013D01*
X126274463Y-193051082D01*
X125976912Y-192927832D01*
X125661033Y-192865000D01*
X125338967Y-192865000D01*
X125023088Y-192927832D01*
X124725537Y-193051082D01*
X124457748Y-193230013D01*
X124230013Y-193457748D01*
X124051082Y-193725537D01*
X123927832Y-194023088D01*
X123865000Y-194338967D01*
X120635000Y-194338967D01*
X120572168Y-194023088D01*
X120448918Y-193725537D01*
X120269987Y-193457748D01*
X120042252Y-193230013D01*
X119774463Y-193051082D01*
X119476912Y-192927832D01*
X119161033Y-192865000D01*
X118838967Y-192865000D01*
X118523088Y-192927832D01*
X118225537Y-193051082D01*
X117957748Y-193230013D01*
X117730013Y-193457748D01*
X117551082Y-193725537D01*
X117427832Y-194023088D01*
X117365000Y-194338967D01*
X111099606Y-194338967D01*
X111135000Y-194161033D01*
X111135000Y-193838967D01*
X111072168Y-193523088D01*
X110948918Y-193225537D01*
X110769987Y-192957748D01*
X110542252Y-192730013D01*
X110274463Y-192551082D01*
X109976912Y-192427832D01*
X109661033Y-192365000D01*
X109338967Y-192365000D01*
X109023088Y-192427832D01*
X108725537Y-192551082D01*
X108457748Y-192730013D01*
X108230013Y-192957748D01*
X108051082Y-193225537D01*
X107927832Y-193523088D01*
X107865000Y-193838967D01*
X96635000Y-193838967D01*
X96572168Y-193523088D01*
X96448918Y-193225537D01*
X96269987Y-192957748D01*
X96042252Y-192730013D01*
X95945065Y-192665075D01*
X95955808Y-192635413D01*
X95000000Y-191679605D01*
X94044192Y-192635413D01*
X94054935Y-192665075D01*
X93957748Y-192730013D01*
X93730013Y-192957748D01*
X93551082Y-193225537D01*
X93427832Y-193523088D01*
X93365000Y-193838967D01*
X86995903Y-193838967D01*
X86948918Y-193725537D01*
X86769987Y-193457748D01*
X86542252Y-193230013D01*
X86274463Y-193051082D01*
X85976912Y-192927832D01*
X85661033Y-192865000D01*
X85338967Y-192865000D01*
X85023088Y-192927832D01*
X84725537Y-193051082D01*
X84457748Y-193230013D01*
X84230013Y-193457748D01*
X84051082Y-193725537D01*
X83927832Y-194023088D01*
X83865000Y-194338967D01*
X80635000Y-194338967D01*
X80572168Y-194023088D01*
X80448918Y-193725537D01*
X80269987Y-193457748D01*
X80042252Y-193230013D01*
X79774463Y-193051082D01*
X79476912Y-192927832D01*
X79161033Y-192865000D01*
X78838967Y-192865000D01*
X78523088Y-192927832D01*
X78225537Y-193051082D01*
X77957748Y-193230013D01*
X77730013Y-193457748D01*
X77551082Y-193725537D01*
X77427832Y-194023088D01*
X77365000Y-194338967D01*
X72135000Y-194338967D01*
X72072168Y-194023088D01*
X71948918Y-193725537D01*
X71769987Y-193457748D01*
X71542252Y-193230013D01*
X71274463Y-193051082D01*
X70976912Y-192927832D01*
X70661033Y-192865000D01*
X70338967Y-192865000D01*
X70023088Y-192927832D01*
X69725537Y-193051082D01*
X69457748Y-193230013D01*
X69230013Y-193457748D01*
X69051082Y-193725537D01*
X68927832Y-194023088D01*
X68865000Y-194338967D01*
X65635000Y-194338967D01*
X65572168Y-194023088D01*
X65448918Y-193725537D01*
X65269987Y-193457748D01*
X65042252Y-193230013D01*
X64774463Y-193051082D01*
X64476912Y-192927832D01*
X64161033Y-192865000D01*
X63838967Y-192865000D01*
X63523088Y-192927832D01*
X63225537Y-193051082D01*
X62957748Y-193230013D01*
X62730013Y-193457748D01*
X62551082Y-193725537D01*
X62427832Y-194023088D01*
X62365000Y-194338967D01*
X55660000Y-194338967D01*
X55660000Y-191135413D01*
X63044192Y-191135413D01*
X63139956Y-191399814D01*
X63429571Y-191540704D01*
X63741108Y-191622384D01*
X64062595Y-191641718D01*
X64381675Y-191597961D01*
X64686088Y-191492795D01*
X64860044Y-191399814D01*
X64955808Y-191135413D01*
X69544192Y-191135413D01*
X69639956Y-191399814D01*
X69929571Y-191540704D01*
X70241108Y-191622384D01*
X70562595Y-191641718D01*
X70881675Y-191597961D01*
X71186088Y-191492795D01*
X71360044Y-191399814D01*
X71455808Y-191135413D01*
X78044192Y-191135413D01*
X78139956Y-191399814D01*
X78429571Y-191540704D01*
X78741108Y-191622384D01*
X79062595Y-191641718D01*
X79381675Y-191597961D01*
X79686088Y-191492795D01*
X79860044Y-191399814D01*
X79955808Y-191135413D01*
X84544192Y-191135413D01*
X84639956Y-191399814D01*
X84929571Y-191540704D01*
X85241108Y-191622384D01*
X85562595Y-191641718D01*
X85881675Y-191597961D01*
X85984045Y-191562595D01*
X93358282Y-191562595D01*
X93402039Y-191881675D01*
X93507205Y-192186088D01*
X93600186Y-192360044D01*
X93864587Y-192455808D01*
X94820395Y-191500000D01*
X94806253Y-191485858D01*
X94985858Y-191306253D01*
X95000000Y-191320395D01*
X95014143Y-191306253D01*
X95193748Y-191485858D01*
X95179605Y-191500000D01*
X96135413Y-192455808D01*
X96399814Y-192360044D01*
X96540704Y-192070429D01*
X96622384Y-191758892D01*
X96641718Y-191437405D01*
X96600305Y-191135413D01*
X118044192Y-191135413D01*
X118139956Y-191399814D01*
X118429571Y-191540704D01*
X118741108Y-191622384D01*
X119062595Y-191641718D01*
X119381675Y-191597961D01*
X119686088Y-191492795D01*
X119860044Y-191399814D01*
X119955808Y-191135413D01*
X124544192Y-191135413D01*
X124639956Y-191399814D01*
X124929571Y-191540704D01*
X125241108Y-191622384D01*
X125562595Y-191641718D01*
X125881675Y-191597961D01*
X126186088Y-191492795D01*
X126360044Y-191399814D01*
X126455808Y-191135413D01*
X134044192Y-191135413D01*
X134139956Y-191399814D01*
X134429571Y-191540704D01*
X134741108Y-191622384D01*
X135062595Y-191641718D01*
X135381675Y-191597961D01*
X135686088Y-191492795D01*
X135860044Y-191399814D01*
X135955808Y-191135413D01*
X140544192Y-191135413D01*
X140639956Y-191399814D01*
X140929571Y-191540704D01*
X141241108Y-191622384D01*
X141562595Y-191641718D01*
X141881675Y-191597961D01*
X142186088Y-191492795D01*
X142360044Y-191399814D01*
X142455808Y-191135413D01*
X141500000Y-190179605D01*
X140544192Y-191135413D01*
X135955808Y-191135413D01*
X135000000Y-190179605D01*
X134044192Y-191135413D01*
X126455808Y-191135413D01*
X125500000Y-190179605D01*
X124544192Y-191135413D01*
X119955808Y-191135413D01*
X119000000Y-190179605D01*
X118044192Y-191135413D01*
X96600305Y-191135413D01*
X96597961Y-191118325D01*
X96492795Y-190813912D01*
X96399814Y-190639956D01*
X96250777Y-190585976D01*
X96354494Y-190530537D01*
X96451185Y-190451185D01*
X96530537Y-190354494D01*
X96589502Y-190244180D01*
X96622496Y-190135413D01*
X108544192Y-190135413D01*
X108639956Y-190399814D01*
X108929571Y-190540704D01*
X109241108Y-190622384D01*
X109562595Y-190641718D01*
X109881675Y-190597961D01*
X110186088Y-190492795D01*
X110360044Y-190399814D01*
X110455808Y-190135413D01*
X110382990Y-190062595D01*
X117358282Y-190062595D01*
X117402039Y-190381675D01*
X117507205Y-190686088D01*
X117600186Y-190860044D01*
X117864587Y-190955808D01*
X118820395Y-190000000D01*
X119179605Y-190000000D01*
X120135413Y-190955808D01*
X120399814Y-190860044D01*
X120540704Y-190570429D01*
X120622384Y-190258892D01*
X120634189Y-190062595D01*
X123858282Y-190062595D01*
X123902039Y-190381675D01*
X124007205Y-190686088D01*
X124100186Y-190860044D01*
X124364587Y-190955808D01*
X125320395Y-190000000D01*
X125679605Y-190000000D01*
X126635413Y-190955808D01*
X126899814Y-190860044D01*
X127040704Y-190570429D01*
X127122384Y-190258892D01*
X127134189Y-190062595D01*
X133358282Y-190062595D01*
X133402039Y-190381675D01*
X133507205Y-190686088D01*
X133600186Y-190860044D01*
X133864587Y-190955808D01*
X134820395Y-190000000D01*
X135179605Y-190000000D01*
X136135413Y-190955808D01*
X136399814Y-190860044D01*
X136540704Y-190570429D01*
X136622384Y-190258892D01*
X136634189Y-190062595D01*
X139858282Y-190062595D01*
X139902039Y-190381675D01*
X140007205Y-190686088D01*
X140100186Y-190860044D01*
X140364587Y-190955808D01*
X141320395Y-190000000D01*
X141679605Y-190000000D01*
X142635413Y-190955808D01*
X142899814Y-190860044D01*
X143040704Y-190570429D01*
X143122384Y-190258892D01*
X143141718Y-189937405D01*
X143097961Y-189618325D01*
X142992795Y-189313912D01*
X142899814Y-189139956D01*
X142635413Y-189044192D01*
X141679605Y-190000000D01*
X141320395Y-190000000D01*
X140364587Y-189044192D01*
X140100186Y-189139956D01*
X139959296Y-189429571D01*
X139877616Y-189741108D01*
X139858282Y-190062595D01*
X136634189Y-190062595D01*
X136641718Y-189937405D01*
X136597961Y-189618325D01*
X136492795Y-189313912D01*
X136399814Y-189139956D01*
X136135413Y-189044192D01*
X135179605Y-190000000D01*
X134820395Y-190000000D01*
X133864587Y-189044192D01*
X133600186Y-189139956D01*
X133459296Y-189429571D01*
X133377616Y-189741108D01*
X133358282Y-190062595D01*
X127134189Y-190062595D01*
X127141718Y-189937405D01*
X127097961Y-189618325D01*
X126992795Y-189313912D01*
X126899814Y-189139956D01*
X126635413Y-189044192D01*
X125679605Y-190000000D01*
X125320395Y-190000000D01*
X124364587Y-189044192D01*
X124100186Y-189139956D01*
X123959296Y-189429571D01*
X123877616Y-189741108D01*
X123858282Y-190062595D01*
X120634189Y-190062595D01*
X120641718Y-189937405D01*
X120597961Y-189618325D01*
X120492795Y-189313912D01*
X120399814Y-189139956D01*
X120135413Y-189044192D01*
X119179605Y-190000000D01*
X118820395Y-190000000D01*
X117864587Y-189044192D01*
X117600186Y-189139956D01*
X117459296Y-189429571D01*
X117377616Y-189741108D01*
X117358282Y-190062595D01*
X110382990Y-190062595D01*
X109500000Y-189179605D01*
X108544192Y-190135413D01*
X96622496Y-190135413D01*
X96625812Y-190124482D01*
X96638072Y-190000000D01*
X96638072Y-189062595D01*
X107858282Y-189062595D01*
X107902039Y-189381675D01*
X108007205Y-189686088D01*
X108100186Y-189860044D01*
X108364587Y-189955808D01*
X109320395Y-189000000D01*
X109679605Y-189000000D01*
X110635413Y-189955808D01*
X110899814Y-189860044D01*
X111040704Y-189570429D01*
X111122384Y-189258892D01*
X111141718Y-188937405D01*
X111131733Y-188864587D01*
X118044192Y-188864587D01*
X119000000Y-189820395D01*
X119955808Y-188864587D01*
X124544192Y-188864587D01*
X125500000Y-189820395D01*
X126455808Y-188864587D01*
X134044192Y-188864587D01*
X135000000Y-189820395D01*
X135955808Y-188864587D01*
X140544192Y-188864587D01*
X141500000Y-189820395D01*
X142455808Y-188864587D01*
X142360044Y-188600186D01*
X142070429Y-188459296D01*
X141758892Y-188377616D01*
X141437405Y-188358282D01*
X141118325Y-188402039D01*
X140813912Y-188507205D01*
X140639956Y-188600186D01*
X140544192Y-188864587D01*
X135955808Y-188864587D01*
X135860044Y-188600186D01*
X135570429Y-188459296D01*
X135258892Y-188377616D01*
X134937405Y-188358282D01*
X134618325Y-188402039D01*
X134313912Y-188507205D01*
X134139956Y-188600186D01*
X134044192Y-188864587D01*
X126455808Y-188864587D01*
X126360044Y-188600186D01*
X126070429Y-188459296D01*
X125758892Y-188377616D01*
X125437405Y-188358282D01*
X125118325Y-188402039D01*
X124813912Y-188507205D01*
X124639956Y-188600186D01*
X124544192Y-188864587D01*
X119955808Y-188864587D01*
X119860044Y-188600186D01*
X119570429Y-188459296D01*
X119258892Y-188377616D01*
X118937405Y-188358282D01*
X118618325Y-188402039D01*
X118313912Y-188507205D01*
X118139956Y-188600186D01*
X118044192Y-188864587D01*
X111131733Y-188864587D01*
X111097961Y-188618325D01*
X110992795Y-188313912D01*
X110899814Y-188139956D01*
X110635413Y-188044192D01*
X109679605Y-189000000D01*
X109320395Y-189000000D01*
X108364587Y-188044192D01*
X108100186Y-188139956D01*
X107959296Y-188429571D01*
X107877616Y-188741108D01*
X107858282Y-189062595D01*
X96638072Y-189062595D01*
X96638072Y-188000000D01*
X96625812Y-187875518D01*
X96622497Y-187864587D01*
X108544192Y-187864587D01*
X109500000Y-188820395D01*
X110455808Y-187864587D01*
X110360044Y-187600186D01*
X110070429Y-187459296D01*
X109758892Y-187377616D01*
X109437405Y-187358282D01*
X109118325Y-187402039D01*
X108813912Y-187507205D01*
X108639956Y-187600186D01*
X108544192Y-187864587D01*
X96622497Y-187864587D01*
X96589502Y-187755820D01*
X96530537Y-187645506D01*
X96451185Y-187548815D01*
X96354494Y-187469463D01*
X96244180Y-187410498D01*
X96124482Y-187374188D01*
X96000000Y-187361928D01*
X94000000Y-187361928D01*
X93875518Y-187374188D01*
X93755820Y-187410498D01*
X93645506Y-187469463D01*
X93548815Y-187548815D01*
X93469463Y-187645506D01*
X93410498Y-187755820D01*
X93374188Y-187875518D01*
X93361928Y-188000000D01*
X93361928Y-190000000D01*
X93374188Y-190124482D01*
X93410498Y-190244180D01*
X93469463Y-190354494D01*
X93548815Y-190451185D01*
X93645506Y-190530537D01*
X93749223Y-190585976D01*
X93600186Y-190639956D01*
X93459296Y-190929571D01*
X93377616Y-191241108D01*
X93358282Y-191562595D01*
X85984045Y-191562595D01*
X86186088Y-191492795D01*
X86360044Y-191399814D01*
X86455808Y-191135413D01*
X85500000Y-190179605D01*
X84544192Y-191135413D01*
X79955808Y-191135413D01*
X79000000Y-190179605D01*
X78044192Y-191135413D01*
X71455808Y-191135413D01*
X70500000Y-190179605D01*
X69544192Y-191135413D01*
X64955808Y-191135413D01*
X64000000Y-190179605D01*
X63044192Y-191135413D01*
X55660000Y-191135413D01*
X55660000Y-190062595D01*
X62358282Y-190062595D01*
X62402039Y-190381675D01*
X62507205Y-190686088D01*
X62600186Y-190860044D01*
X62864587Y-190955808D01*
X63820395Y-190000000D01*
X64179605Y-190000000D01*
X65135413Y-190955808D01*
X65399814Y-190860044D01*
X65540704Y-190570429D01*
X65622384Y-190258892D01*
X65634189Y-190062595D01*
X68858282Y-190062595D01*
X68902039Y-190381675D01*
X69007205Y-190686088D01*
X69100186Y-190860044D01*
X69364587Y-190955808D01*
X70320395Y-190000000D01*
X70679605Y-190000000D01*
X71635413Y-190955808D01*
X71899814Y-190860044D01*
X72040704Y-190570429D01*
X72122384Y-190258892D01*
X72134189Y-190062595D01*
X77358282Y-190062595D01*
X77402039Y-190381675D01*
X77507205Y-190686088D01*
X77600186Y-190860044D01*
X77864587Y-190955808D01*
X78820395Y-190000000D01*
X79179605Y-190000000D01*
X80135413Y-190955808D01*
X80399814Y-190860044D01*
X80540704Y-190570429D01*
X80622384Y-190258892D01*
X80634189Y-190062595D01*
X83858282Y-190062595D01*
X83902039Y-190381675D01*
X84007205Y-190686088D01*
X84100186Y-190860044D01*
X84364587Y-190955808D01*
X85320395Y-190000000D01*
X85679605Y-190000000D01*
X86635413Y-190955808D01*
X86899814Y-190860044D01*
X87040704Y-190570429D01*
X87122384Y-190258892D01*
X87141718Y-189937405D01*
X87097961Y-189618325D01*
X86992795Y-189313912D01*
X86899814Y-189139956D01*
X86635413Y-189044192D01*
X85679605Y-190000000D01*
X85320395Y-190000000D01*
X84364587Y-189044192D01*
X84100186Y-189139956D01*
X83959296Y-189429571D01*
X83877616Y-189741108D01*
X83858282Y-190062595D01*
X80634189Y-190062595D01*
X80641718Y-189937405D01*
X80597961Y-189618325D01*
X80492795Y-189313912D01*
X80399814Y-189139956D01*
X80135413Y-189044192D01*
X79179605Y-190000000D01*
X78820395Y-190000000D01*
X77864587Y-189044192D01*
X77600186Y-189139956D01*
X77459296Y-189429571D01*
X77377616Y-189741108D01*
X77358282Y-190062595D01*
X72134189Y-190062595D01*
X72141718Y-189937405D01*
X72097961Y-189618325D01*
X71992795Y-189313912D01*
X71899814Y-189139956D01*
X71635413Y-189044192D01*
X70679605Y-190000000D01*
X70320395Y-190000000D01*
X69364587Y-189044192D01*
X69100186Y-189139956D01*
X68959296Y-189429571D01*
X68877616Y-189741108D01*
X68858282Y-190062595D01*
X65634189Y-190062595D01*
X65641718Y-189937405D01*
X65597961Y-189618325D01*
X65492795Y-189313912D01*
X65399814Y-189139956D01*
X65135413Y-189044192D01*
X64179605Y-190000000D01*
X63820395Y-190000000D01*
X62864587Y-189044192D01*
X62600186Y-189139956D01*
X62459296Y-189429571D01*
X62377616Y-189741108D01*
X62358282Y-190062595D01*
X55660000Y-190062595D01*
X55660000Y-188864587D01*
X63044192Y-188864587D01*
X64000000Y-189820395D01*
X64955808Y-188864587D01*
X69544192Y-188864587D01*
X70500000Y-189820395D01*
X71455808Y-188864587D01*
X78044192Y-188864587D01*
X79000000Y-189820395D01*
X79955808Y-188864587D01*
X84544192Y-188864587D01*
X85500000Y-189820395D01*
X86455808Y-188864587D01*
X86360044Y-188600186D01*
X86070429Y-188459296D01*
X85758892Y-188377616D01*
X85437405Y-188358282D01*
X85118325Y-188402039D01*
X84813912Y-188507205D01*
X84639956Y-188600186D01*
X84544192Y-188864587D01*
X79955808Y-188864587D01*
X79860044Y-188600186D01*
X79570429Y-188459296D01*
X79258892Y-188377616D01*
X78937405Y-188358282D01*
X78618325Y-188402039D01*
X78313912Y-188507205D01*
X78139956Y-188600186D01*
X78044192Y-188864587D01*
X71455808Y-188864587D01*
X71360044Y-188600186D01*
X71070429Y-188459296D01*
X70758892Y-188377616D01*
X70437405Y-188358282D01*
X70118325Y-188402039D01*
X69813912Y-188507205D01*
X69639956Y-188600186D01*
X69544192Y-188864587D01*
X64955808Y-188864587D01*
X64860044Y-188600186D01*
X64570429Y-188459296D01*
X64258892Y-188377616D01*
X63937405Y-188358282D01*
X63618325Y-188402039D01*
X63313912Y-188507205D01*
X63139956Y-188600186D01*
X63044192Y-188864587D01*
X55660000Y-188864587D01*
X55660000Y-184900000D01*
X100261928Y-184900000D01*
X100261928Y-186900000D01*
X100274188Y-187024482D01*
X100310498Y-187144180D01*
X100369463Y-187254494D01*
X100448815Y-187351185D01*
X100545506Y-187430537D01*
X100655820Y-187489502D01*
X100775518Y-187525812D01*
X100900000Y-187538072D01*
X104100000Y-187538072D01*
X104224482Y-187525812D01*
X104344180Y-187489502D01*
X104454494Y-187430537D01*
X104551185Y-187351185D01*
X104630537Y-187254494D01*
X104689502Y-187144180D01*
X104725812Y-187024482D01*
X104738072Y-186900000D01*
X104738072Y-184900000D01*
X104725812Y-184775518D01*
X104689502Y-184655820D01*
X104630537Y-184545506D01*
X104551185Y-184448815D01*
X104454494Y-184369463D01*
X104344180Y-184310498D01*
X104224482Y-184274188D01*
X104100000Y-184261928D01*
X100900000Y-184261928D01*
X100775518Y-184274188D01*
X100655820Y-184310498D01*
X100545506Y-184369463D01*
X100448815Y-184448815D01*
X100369463Y-184545506D01*
X100310498Y-184655820D01*
X100274188Y-184775518D01*
X100261928Y-184900000D01*
X55660000Y-184900000D01*
X55660000Y-174762169D01*
X63085259Y-174762169D01*
X63085259Y-175237831D01*
X63178056Y-175704354D01*
X63360084Y-176143809D01*
X63624348Y-176539308D01*
X63960692Y-176875652D01*
X64356191Y-177139916D01*
X64795646Y-177321944D01*
X65262169Y-177414741D01*
X65737831Y-177414741D01*
X66204354Y-177321944D01*
X66643809Y-177139916D01*
X67039308Y-176875652D01*
X67375652Y-176539308D01*
X67639916Y-176143809D01*
X67821944Y-175704354D01*
X67914741Y-175237831D01*
X67914741Y-174769042D01*
X138155041Y-174769042D01*
X138155041Y-175230958D01*
X138245157Y-175683999D01*
X138421925Y-176110754D01*
X138678552Y-176494824D01*
X139005176Y-176821448D01*
X139389246Y-177078075D01*
X139816001Y-177254843D01*
X140269042Y-177344959D01*
X140730958Y-177344959D01*
X141183999Y-177254843D01*
X141610754Y-177078075D01*
X141994824Y-176821448D01*
X142321448Y-176494824D01*
X142578075Y-176110754D01*
X142754843Y-175683999D01*
X142844959Y-175230958D01*
X142844959Y-174769042D01*
X142754843Y-174316001D01*
X142578075Y-173889246D01*
X142321448Y-173505176D01*
X141994824Y-173178552D01*
X141610754Y-172921925D01*
X141183999Y-172745157D01*
X140730958Y-172655041D01*
X140269042Y-172655041D01*
X139816001Y-172745157D01*
X139389246Y-172921925D01*
X139005176Y-173178552D01*
X138678552Y-173505176D01*
X138421925Y-173889246D01*
X138245157Y-174316001D01*
X138155041Y-174769042D01*
X67914741Y-174769042D01*
X67914741Y-174762169D01*
X67821944Y-174295646D01*
X67639916Y-173856191D01*
X67375652Y-173460692D01*
X67039308Y-173124348D01*
X66643809Y-172860084D01*
X66204354Y-172678056D01*
X65737831Y-172585259D01*
X65262169Y-172585259D01*
X64795646Y-172678056D01*
X64356191Y-172860084D01*
X63960692Y-173124348D01*
X63624348Y-173460692D01*
X63360084Y-173856191D01*
X63178056Y-174295646D01*
X63085259Y-174762169D01*
X55660000Y-174762169D01*
X55660000Y-150950000D01*
X55911928Y-150950000D01*
X55911928Y-152650000D01*
X55924188Y-152774482D01*
X55960498Y-152894180D01*
X56019463Y-153004494D01*
X56098815Y-153101185D01*
X56195506Y-153180537D01*
X56305820Y-153239502D01*
X56425518Y-153275812D01*
X56550000Y-153288072D01*
X58250000Y-153288072D01*
X58374482Y-153275812D01*
X58494180Y-153239502D01*
X58604494Y-153180537D01*
X58701185Y-153101185D01*
X58780537Y-153004494D01*
X58839502Y-152894180D01*
X58875812Y-152774482D01*
X58888072Y-152650000D01*
X58888072Y-150950000D01*
X58875812Y-150825518D01*
X58839502Y-150705820D01*
X58780537Y-150595506D01*
X58701185Y-150498815D01*
X58604494Y-150419463D01*
X58494180Y-150360498D01*
X58421620Y-150338487D01*
X58553475Y-150206632D01*
X58715990Y-149963411D01*
X58827932Y-149693158D01*
X58885000Y-149406260D01*
X58885000Y-149113740D01*
X58827932Y-148826842D01*
X58715990Y-148556589D01*
X58553475Y-148313368D01*
X58346632Y-148106525D01*
X58172240Y-147990000D01*
X58346632Y-147873475D01*
X58553475Y-147666632D01*
X58715990Y-147423411D01*
X58827932Y-147153158D01*
X58885000Y-146866260D01*
X58885000Y-146573740D01*
X58827932Y-146286842D01*
X58715990Y-146016589D01*
X58553475Y-145773368D01*
X58346632Y-145566525D01*
X58164466Y-145444805D01*
X58281355Y-145375178D01*
X58497588Y-145180269D01*
X58671641Y-144946920D01*
X58796825Y-144684099D01*
X58841476Y-144536890D01*
X58720155Y-144307000D01*
X57527000Y-144307000D01*
X57527000Y-144327000D01*
X57273000Y-144327000D01*
X57273000Y-144307000D01*
X56079845Y-144307000D01*
X55958524Y-144536890D01*
X56003175Y-144684099D01*
X56128359Y-144946920D01*
X56302412Y-145180269D01*
X56518645Y-145375178D01*
X56635534Y-145444805D01*
X56453368Y-145566525D01*
X56246525Y-145773368D01*
X56084010Y-146016589D01*
X55972068Y-146286842D01*
X55915000Y-146573740D01*
X55915000Y-146866260D01*
X55972068Y-147153158D01*
X56084010Y-147423411D01*
X56246525Y-147666632D01*
X56453368Y-147873475D01*
X56627760Y-147990000D01*
X56453368Y-148106525D01*
X56246525Y-148313368D01*
X56084010Y-148556589D01*
X55972068Y-148826842D01*
X55915000Y-149113740D01*
X55915000Y-149406260D01*
X55972068Y-149693158D01*
X56084010Y-149963411D01*
X56246525Y-150206632D01*
X56378380Y-150338487D01*
X56305820Y-150360498D01*
X56195506Y-150419463D01*
X56098815Y-150498815D01*
X56019463Y-150595506D01*
X55960498Y-150705820D01*
X55924188Y-150825518D01*
X55911928Y-150950000D01*
X55660000Y-150950000D01*
X55660000Y-143823110D01*
X55958524Y-143823110D01*
X56079845Y-144053000D01*
X57273000Y-144053000D01*
X57273000Y-142859186D01*
X57527000Y-142859186D01*
X57527000Y-144053000D01*
X58720155Y-144053000D01*
X58841476Y-143823110D01*
X58822907Y-143761888D01*
X63082412Y-143761888D01*
X63082412Y-144238112D01*
X63175318Y-144705185D01*
X63357561Y-145145157D01*
X63622137Y-145541123D01*
X63958877Y-145877863D01*
X64354843Y-146142439D01*
X64794815Y-146324682D01*
X65261888Y-146417588D01*
X65738112Y-146417588D01*
X66205185Y-146324682D01*
X66645157Y-146142439D01*
X67041123Y-145877863D01*
X67377863Y-145541123D01*
X67642439Y-145145157D01*
X67824682Y-144705185D01*
X67917588Y-144238112D01*
X67917588Y-143769042D01*
X138155041Y-143769042D01*
X138155041Y-144230958D01*
X138245157Y-144683999D01*
X138421925Y-145110754D01*
X138678552Y-145494824D01*
X139005176Y-145821448D01*
X139389246Y-146078075D01*
X139816001Y-146254843D01*
X140269042Y-146344959D01*
X140730958Y-146344959D01*
X141183999Y-146254843D01*
X141610754Y-146078075D01*
X141994824Y-145821448D01*
X142321448Y-145494824D01*
X142578075Y-145110754D01*
X142754843Y-144683999D01*
X142844959Y-144230958D01*
X142844959Y-143769042D01*
X142754843Y-143316001D01*
X142578075Y-142889246D01*
X142321448Y-142505176D01*
X141994824Y-142178552D01*
X141610754Y-141921925D01*
X141183999Y-141745157D01*
X140730958Y-141655041D01*
X140269042Y-141655041D01*
X139816001Y-141745157D01*
X139389246Y-141921925D01*
X139005176Y-142178552D01*
X138678552Y-142505176D01*
X138421925Y-142889246D01*
X138245157Y-143316001D01*
X138155041Y-143769042D01*
X67917588Y-143769042D01*
X67917588Y-143761888D01*
X67824682Y-143294815D01*
X67642439Y-142854843D01*
X67377863Y-142458877D01*
X67041123Y-142122137D01*
X66645157Y-141857561D01*
X66205185Y-141675318D01*
X65738112Y-141582412D01*
X65261888Y-141582412D01*
X64794815Y-141675318D01*
X64354843Y-141857561D01*
X63958877Y-142122137D01*
X63622137Y-142458877D01*
X63357561Y-142854843D01*
X63175318Y-143294815D01*
X63082412Y-143761888D01*
X58822907Y-143761888D01*
X58796825Y-143675901D01*
X58671641Y-143413080D01*
X58497588Y-143179731D01*
X58281355Y-142984822D01*
X58031252Y-142835843D01*
X57756891Y-142738519D01*
X57527000Y-142859186D01*
X57273000Y-142859186D01*
X57043109Y-142738519D01*
X56768748Y-142835843D01*
X56518645Y-142984822D01*
X56302412Y-143179731D01*
X56128359Y-143413080D01*
X56003175Y-143675901D01*
X55958524Y-143823110D01*
X55660000Y-143823110D01*
X55660000Y-134416481D01*
X56763124Y-134416481D01*
X57075308Y-134865177D01*
X57671259Y-135185612D01*
X58318273Y-135383626D01*
X58991484Y-135451610D01*
X59665023Y-135386949D01*
X60313006Y-135192130D01*
X60486396Y-135100000D01*
X68061928Y-135100000D01*
X68061928Y-137100000D01*
X68074188Y-137224482D01*
X68110498Y-137344180D01*
X68169463Y-137454494D01*
X68248815Y-137551185D01*
X68345506Y-137630537D01*
X68455820Y-137689502D01*
X68575518Y-137725812D01*
X68700000Y-137738072D01*
X71300000Y-137738072D01*
X71424482Y-137725812D01*
X71544180Y-137689502D01*
X71654494Y-137630537D01*
X71751185Y-137551185D01*
X71830537Y-137454494D01*
X71889502Y-137344180D01*
X71925812Y-137224482D01*
X71938072Y-137100000D01*
X71938072Y-135100000D01*
X71925812Y-134975518D01*
X71889502Y-134855820D01*
X71830537Y-134745506D01*
X71751185Y-134648815D01*
X71654494Y-134569463D01*
X71544180Y-134510498D01*
X71424482Y-134474188D01*
X71300000Y-134461928D01*
X68700000Y-134461928D01*
X68575518Y-134474188D01*
X68455820Y-134510498D01*
X68345506Y-134569463D01*
X68248815Y-134648815D01*
X68169463Y-134745506D01*
X68110498Y-134855820D01*
X68074188Y-134975518D01*
X68061928Y-135100000D01*
X60486396Y-135100000D01*
X60910530Y-134874639D01*
X60924692Y-134865177D01*
X61236876Y-134416481D01*
X59000000Y-132179605D01*
X56763124Y-134416481D01*
X55660000Y-134416481D01*
X55660000Y-132821179D01*
X55807870Y-133313006D01*
X56125361Y-133910530D01*
X56134823Y-133924692D01*
X56583519Y-134236876D01*
X58820395Y-132000000D01*
X59179605Y-132000000D01*
X61416481Y-134236876D01*
X61865177Y-133924692D01*
X62185612Y-133328741D01*
X62383626Y-132681727D01*
X62451610Y-132008516D01*
X62431593Y-131800000D01*
X63661928Y-131800000D01*
X63661928Y-134400000D01*
X63674188Y-134524482D01*
X63710498Y-134644180D01*
X63769463Y-134754494D01*
X63848815Y-134851185D01*
X63945506Y-134930537D01*
X64055820Y-134989502D01*
X64175518Y-135025812D01*
X64300000Y-135038072D01*
X66300000Y-135038072D01*
X66424482Y-135025812D01*
X66544180Y-134989502D01*
X66654494Y-134930537D01*
X66751185Y-134851185D01*
X66830537Y-134754494D01*
X66889502Y-134644180D01*
X66925812Y-134524482D01*
X66936448Y-134416481D01*
X145763124Y-134416481D01*
X146075308Y-134865177D01*
X146671259Y-135185612D01*
X147318273Y-135383626D01*
X147991484Y-135451610D01*
X148665023Y-135386949D01*
X149313006Y-135192130D01*
X149910530Y-134874639D01*
X149924692Y-134865177D01*
X150236876Y-134416481D01*
X148000000Y-132179605D01*
X145763124Y-134416481D01*
X66936448Y-134416481D01*
X66938072Y-134400000D01*
X66938072Y-131800000D01*
X66925812Y-131675518D01*
X66889502Y-131555820D01*
X66830537Y-131445506D01*
X66751185Y-131348815D01*
X66654494Y-131269463D01*
X66544180Y-131210498D01*
X66424482Y-131174188D01*
X66300000Y-131161928D01*
X64300000Y-131161928D01*
X64175518Y-131174188D01*
X64055820Y-131210498D01*
X63945506Y-131269463D01*
X63848815Y-131348815D01*
X63769463Y-131445506D01*
X63710498Y-131555820D01*
X63674188Y-131675518D01*
X63661928Y-131800000D01*
X62431593Y-131800000D01*
X62386949Y-131334977D01*
X62316303Y-131100000D01*
X68061928Y-131100000D01*
X68074188Y-131224482D01*
X68110498Y-131344180D01*
X68169463Y-131454494D01*
X68248815Y-131551185D01*
X68345506Y-131630537D01*
X68455820Y-131689502D01*
X68575518Y-131725812D01*
X68700000Y-131738072D01*
X69714250Y-131735000D01*
X69873000Y-131576250D01*
X69873000Y-130227000D01*
X70127000Y-130227000D01*
X70127000Y-131576250D01*
X70285750Y-131735000D01*
X71300000Y-131738072D01*
X71424482Y-131725812D01*
X71544180Y-131689502D01*
X71654494Y-131630537D01*
X71751185Y-131551185D01*
X71830537Y-131454494D01*
X71889502Y-131344180D01*
X71925812Y-131224482D01*
X71938072Y-131100000D01*
X71935000Y-130385750D01*
X71776250Y-130227000D01*
X70127000Y-130227000D01*
X69873000Y-130227000D01*
X68223750Y-130227000D01*
X68065000Y-130385750D01*
X68061928Y-131100000D01*
X62316303Y-131100000D01*
X62192130Y-130686994D01*
X61906802Y-130150000D01*
X77611928Y-130150000D01*
X77611928Y-131850000D01*
X77624188Y-131974482D01*
X77660498Y-132094180D01*
X77719463Y-132204494D01*
X77798815Y-132301185D01*
X77895506Y-132380537D01*
X78005820Y-132439502D01*
X78125518Y-132475812D01*
X78250000Y-132488072D01*
X79950000Y-132488072D01*
X80074482Y-132475812D01*
X80194180Y-132439502D01*
X80304494Y-132380537D01*
X80401185Y-132301185D01*
X80480537Y-132204494D01*
X80539502Y-132094180D01*
X80561513Y-132021620D01*
X80693368Y-132153475D01*
X80936589Y-132315990D01*
X81206842Y-132427932D01*
X81493740Y-132485000D01*
X81786260Y-132485000D01*
X82073158Y-132427932D01*
X82343411Y-132315990D01*
X82586632Y-132153475D01*
X82793475Y-131946632D01*
X82910000Y-131772240D01*
X83026525Y-131946632D01*
X83233368Y-132153475D01*
X83476589Y-132315990D01*
X83746842Y-132427932D01*
X84033740Y-132485000D01*
X84326260Y-132485000D01*
X84613158Y-132427932D01*
X84883411Y-132315990D01*
X85126632Y-132153475D01*
X85333475Y-131946632D01*
X85450000Y-131772240D01*
X85566525Y-131946632D01*
X85773368Y-132153475D01*
X86016589Y-132315990D01*
X86286842Y-132427932D01*
X86573740Y-132485000D01*
X86866260Y-132485000D01*
X87153158Y-132427932D01*
X87423411Y-132315990D01*
X87666632Y-132153475D01*
X87873475Y-131946632D01*
X87990000Y-131772240D01*
X88106525Y-131946632D01*
X88313368Y-132153475D01*
X88556589Y-132315990D01*
X88826842Y-132427932D01*
X89113740Y-132485000D01*
X89406260Y-132485000D01*
X89693158Y-132427932D01*
X89963411Y-132315990D01*
X90206632Y-132153475D01*
X90413475Y-131946632D01*
X90530000Y-131772240D01*
X90646525Y-131946632D01*
X90853368Y-132153475D01*
X91096589Y-132315990D01*
X91366842Y-132427932D01*
X91653740Y-132485000D01*
X91946260Y-132485000D01*
X92233158Y-132427932D01*
X92503411Y-132315990D01*
X92746632Y-132153475D01*
X92953475Y-131946632D01*
X93070000Y-131772240D01*
X93186525Y-131946632D01*
X93393368Y-132153475D01*
X93636589Y-132315990D01*
X93906842Y-132427932D01*
X94193740Y-132485000D01*
X94486260Y-132485000D01*
X94773158Y-132427932D01*
X95043411Y-132315990D01*
X95286632Y-132153475D01*
X95493475Y-131946632D01*
X95610000Y-131772240D01*
X95726525Y-131946632D01*
X95933368Y-132153475D01*
X96176589Y-132315990D01*
X96446842Y-132427932D01*
X96733740Y-132485000D01*
X97026260Y-132485000D01*
X97313158Y-132427932D01*
X97583411Y-132315990D01*
X97826632Y-132153475D01*
X98033475Y-131946632D01*
X98150000Y-131772240D01*
X98266525Y-131946632D01*
X98473368Y-132153475D01*
X98716589Y-132315990D01*
X98986842Y-132427932D01*
X99273740Y-132485000D01*
X99566260Y-132485000D01*
X99853158Y-132427932D01*
X100123411Y-132315990D01*
X100366632Y-132153475D01*
X100573475Y-131946632D01*
X100690000Y-131772240D01*
X100806525Y-131946632D01*
X101013368Y-132153475D01*
X101256589Y-132315990D01*
X101526842Y-132427932D01*
X101813740Y-132485000D01*
X102106260Y-132485000D01*
X102393158Y-132427932D01*
X102663411Y-132315990D01*
X102906632Y-132153475D01*
X103113475Y-131946632D01*
X103230000Y-131772240D01*
X103346525Y-131946632D01*
X103553368Y-132153475D01*
X103796589Y-132315990D01*
X104066842Y-132427932D01*
X104353740Y-132485000D01*
X104646260Y-132485000D01*
X104933158Y-132427932D01*
X105203411Y-132315990D01*
X105446632Y-132153475D01*
X105653475Y-131946632D01*
X105770000Y-131772240D01*
X105886525Y-131946632D01*
X106093368Y-132153475D01*
X106336589Y-132315990D01*
X106606842Y-132427932D01*
X106893740Y-132485000D01*
X107186260Y-132485000D01*
X107473158Y-132427932D01*
X107743411Y-132315990D01*
X107986632Y-132153475D01*
X108193475Y-131946632D01*
X108310000Y-131772240D01*
X108426525Y-131946632D01*
X108633368Y-132153475D01*
X108876589Y-132315990D01*
X109146842Y-132427932D01*
X109433740Y-132485000D01*
X109726260Y-132485000D01*
X110013158Y-132427932D01*
X110283411Y-132315990D01*
X110526632Y-132153475D01*
X110733475Y-131946632D01*
X110850000Y-131772240D01*
X110966525Y-131946632D01*
X111173368Y-132153475D01*
X111416589Y-132315990D01*
X111686842Y-132427932D01*
X111973740Y-132485000D01*
X112266260Y-132485000D01*
X112553158Y-132427932D01*
X112823411Y-132315990D01*
X113066632Y-132153475D01*
X113273475Y-131946632D01*
X113390000Y-131772240D01*
X113506525Y-131946632D01*
X113713368Y-132153475D01*
X113956589Y-132315990D01*
X114226842Y-132427932D01*
X114513740Y-132485000D01*
X114806260Y-132485000D01*
X115093158Y-132427932D01*
X115363411Y-132315990D01*
X115606632Y-132153475D01*
X115813475Y-131946632D01*
X115930000Y-131772240D01*
X116046525Y-131946632D01*
X116253368Y-132153475D01*
X116496589Y-132315990D01*
X116766842Y-132427932D01*
X117053740Y-132485000D01*
X117346260Y-132485000D01*
X117633158Y-132427932D01*
X117903411Y-132315990D01*
X118146632Y-132153475D01*
X118353475Y-131946632D01*
X118470000Y-131772240D01*
X118586525Y-131946632D01*
X118793368Y-132153475D01*
X119036589Y-132315990D01*
X119306842Y-132427932D01*
X119593740Y-132485000D01*
X119886260Y-132485000D01*
X120173158Y-132427932D01*
X120443411Y-132315990D01*
X120686632Y-132153475D01*
X120893475Y-131946632D01*
X121015195Y-131764466D01*
X121084822Y-131881355D01*
X121279731Y-132097588D01*
X121513080Y-132271641D01*
X121775901Y-132396825D01*
X121923110Y-132441476D01*
X122153000Y-132320155D01*
X122153000Y-131127000D01*
X122407000Y-131127000D01*
X122407000Y-132320155D01*
X122636890Y-132441476D01*
X122784099Y-132396825D01*
X123046920Y-132271641D01*
X123280269Y-132097588D01*
X123475178Y-131881355D01*
X123550000Y-131755745D01*
X123624822Y-131881355D01*
X123819731Y-132097588D01*
X124053080Y-132271641D01*
X124315901Y-132396825D01*
X124463110Y-132441476D01*
X124693000Y-132320155D01*
X124693000Y-131127000D01*
X124947000Y-131127000D01*
X124947000Y-132320155D01*
X125176890Y-132441476D01*
X125324099Y-132396825D01*
X125586920Y-132271641D01*
X125820269Y-132097588D01*
X126015178Y-131881355D01*
X126090000Y-131755745D01*
X126164822Y-131881355D01*
X126359731Y-132097588D01*
X126593080Y-132271641D01*
X126855901Y-132396825D01*
X127003110Y-132441476D01*
X127233000Y-132320155D01*
X127233000Y-131127000D01*
X127487000Y-131127000D01*
X127487000Y-132320155D01*
X127716890Y-132441476D01*
X127864099Y-132396825D01*
X128126920Y-132271641D01*
X128360269Y-132097588D01*
X128455909Y-131991484D01*
X144548390Y-131991484D01*
X144613051Y-132665023D01*
X144807870Y-133313006D01*
X145125361Y-133910530D01*
X145134823Y-133924692D01*
X145583519Y-134236876D01*
X147820395Y-132000000D01*
X145583519Y-129763124D01*
X145134823Y-130075308D01*
X144814388Y-130671259D01*
X144616374Y-131318273D01*
X144548390Y-131991484D01*
X128455909Y-131991484D01*
X128555178Y-131881355D01*
X128704157Y-131631252D01*
X128801481Y-131356891D01*
X128680814Y-131127000D01*
X127487000Y-131127000D01*
X127233000Y-131127000D01*
X124947000Y-131127000D01*
X124693000Y-131127000D01*
X122407000Y-131127000D01*
X122153000Y-131127000D01*
X122133000Y-131127000D01*
X122133000Y-130873000D01*
X122153000Y-130873000D01*
X122153000Y-129679845D01*
X122407000Y-129679845D01*
X122407000Y-130873000D01*
X124693000Y-130873000D01*
X124693000Y-129679845D01*
X124947000Y-129679845D01*
X124947000Y-130873000D01*
X127233000Y-130873000D01*
X127233000Y-129679845D01*
X127487000Y-129679845D01*
X127487000Y-130873000D01*
X128680814Y-130873000D01*
X128801481Y-130643109D01*
X128704157Y-130368748D01*
X128555178Y-130118645D01*
X128360269Y-129902412D01*
X128126920Y-129728359D01*
X127864099Y-129603175D01*
X127716890Y-129558524D01*
X127487000Y-129679845D01*
X127233000Y-129679845D01*
X127003110Y-129558524D01*
X126855901Y-129603175D01*
X126593080Y-129728359D01*
X126359731Y-129902412D01*
X126164822Y-130118645D01*
X126090000Y-130244255D01*
X126015178Y-130118645D01*
X125820269Y-129902412D01*
X125586920Y-129728359D01*
X125324099Y-129603175D01*
X125176890Y-129558524D01*
X124947000Y-129679845D01*
X124693000Y-129679845D01*
X124463110Y-129558524D01*
X124315901Y-129603175D01*
X124053080Y-129728359D01*
X123819731Y-129902412D01*
X123624822Y-130118645D01*
X123550000Y-130244255D01*
X123475178Y-130118645D01*
X123280269Y-129902412D01*
X123046920Y-129728359D01*
X122784099Y-129603175D01*
X122636890Y-129558524D01*
X122407000Y-129679845D01*
X122153000Y-129679845D01*
X121923110Y-129558524D01*
X121775901Y-129603175D01*
X121513080Y-129728359D01*
X121279731Y-129902412D01*
X121084822Y-130118645D01*
X121015195Y-130235534D01*
X120893475Y-130053368D01*
X120686632Y-129846525D01*
X120443411Y-129684010D01*
X120173158Y-129572068D01*
X119886260Y-129515000D01*
X119593740Y-129515000D01*
X119306842Y-129572068D01*
X119036589Y-129684010D01*
X118793368Y-129846525D01*
X118586525Y-130053368D01*
X118470000Y-130227760D01*
X118353475Y-130053368D01*
X118146632Y-129846525D01*
X117903411Y-129684010D01*
X117633158Y-129572068D01*
X117346260Y-129515000D01*
X117053740Y-129515000D01*
X116766842Y-129572068D01*
X116496589Y-129684010D01*
X116253368Y-129846525D01*
X116046525Y-130053368D01*
X115930000Y-130227760D01*
X115813475Y-130053368D01*
X115606632Y-129846525D01*
X115363411Y-129684010D01*
X115093158Y-129572068D01*
X114806260Y-129515000D01*
X114513740Y-129515000D01*
X114226842Y-129572068D01*
X113956589Y-129684010D01*
X113713368Y-129846525D01*
X113506525Y-130053368D01*
X113390000Y-130227760D01*
X113273475Y-130053368D01*
X113066632Y-129846525D01*
X112823411Y-129684010D01*
X112553158Y-129572068D01*
X112266260Y-129515000D01*
X111973740Y-129515000D01*
X111686842Y-129572068D01*
X111416589Y-129684010D01*
X111173368Y-129846525D01*
X110966525Y-130053368D01*
X110850000Y-130227760D01*
X110733475Y-130053368D01*
X110526632Y-129846525D01*
X110283411Y-129684010D01*
X110013158Y-129572068D01*
X109726260Y-129515000D01*
X109433740Y-129515000D01*
X109146842Y-129572068D01*
X108876589Y-129684010D01*
X108633368Y-129846525D01*
X108426525Y-130053368D01*
X108310000Y-130227760D01*
X108193475Y-130053368D01*
X107986632Y-129846525D01*
X107743411Y-129684010D01*
X107473158Y-129572068D01*
X107186260Y-129515000D01*
X106893740Y-129515000D01*
X106606842Y-129572068D01*
X106336589Y-129684010D01*
X106093368Y-129846525D01*
X105886525Y-130053368D01*
X105770000Y-130227760D01*
X105653475Y-130053368D01*
X105446632Y-129846525D01*
X105203411Y-129684010D01*
X104933158Y-129572068D01*
X104646260Y-129515000D01*
X104353740Y-129515000D01*
X104066842Y-129572068D01*
X103796589Y-129684010D01*
X103553368Y-129846525D01*
X103346525Y-130053368D01*
X103230000Y-130227760D01*
X103113475Y-130053368D01*
X102906632Y-129846525D01*
X102663411Y-129684010D01*
X102393158Y-129572068D01*
X102106260Y-129515000D01*
X101813740Y-129515000D01*
X101526842Y-129572068D01*
X101256589Y-129684010D01*
X101013368Y-129846525D01*
X100806525Y-130053368D01*
X100690000Y-130227760D01*
X100573475Y-130053368D01*
X100366632Y-129846525D01*
X100123411Y-129684010D01*
X99853158Y-129572068D01*
X99566260Y-129515000D01*
X99273740Y-129515000D01*
X98986842Y-129572068D01*
X98716589Y-129684010D01*
X98473368Y-129846525D01*
X98266525Y-130053368D01*
X98150000Y-130227760D01*
X98033475Y-130053368D01*
X97826632Y-129846525D01*
X97583411Y-129684010D01*
X97313158Y-129572068D01*
X97026260Y-129515000D01*
X96733740Y-129515000D01*
X96446842Y-129572068D01*
X96176589Y-129684010D01*
X95933368Y-129846525D01*
X95726525Y-130053368D01*
X95610000Y-130227760D01*
X95493475Y-130053368D01*
X95286632Y-129846525D01*
X95043411Y-129684010D01*
X94773158Y-129572068D01*
X94486260Y-129515000D01*
X94193740Y-129515000D01*
X93906842Y-129572068D01*
X93636589Y-129684010D01*
X93393368Y-129846525D01*
X93186525Y-130053368D01*
X93070000Y-130227760D01*
X92953475Y-130053368D01*
X92746632Y-129846525D01*
X92503411Y-129684010D01*
X92233158Y-129572068D01*
X91946260Y-129515000D01*
X91653740Y-129515000D01*
X91366842Y-129572068D01*
X91096589Y-129684010D01*
X90853368Y-129846525D01*
X90646525Y-130053368D01*
X90530000Y-130227760D01*
X90413475Y-130053368D01*
X90206632Y-129846525D01*
X89963411Y-129684010D01*
X89693158Y-129572068D01*
X89406260Y-129515000D01*
X89113740Y-129515000D01*
X88826842Y-129572068D01*
X88556589Y-129684010D01*
X88313368Y-129846525D01*
X88106525Y-130053368D01*
X87990000Y-130227760D01*
X87873475Y-130053368D01*
X87666632Y-129846525D01*
X87423411Y-129684010D01*
X87153158Y-129572068D01*
X86866260Y-129515000D01*
X86573740Y-129515000D01*
X86286842Y-129572068D01*
X86016589Y-129684010D01*
X85773368Y-129846525D01*
X85566525Y-130053368D01*
X85450000Y-130227760D01*
X85333475Y-130053368D01*
X85126632Y-129846525D01*
X84883411Y-129684010D01*
X84613158Y-129572068D01*
X84326260Y-129515000D01*
X84033740Y-129515000D01*
X83746842Y-129572068D01*
X83476589Y-129684010D01*
X83233368Y-129846525D01*
X83026525Y-130053368D01*
X82910000Y-130227760D01*
X82793475Y-130053368D01*
X82586632Y-129846525D01*
X82343411Y-129684010D01*
X82073158Y-129572068D01*
X81786260Y-129515000D01*
X81493740Y-129515000D01*
X81206842Y-129572068D01*
X80936589Y-129684010D01*
X80693368Y-129846525D01*
X80561513Y-129978380D01*
X80539502Y-129905820D01*
X80480537Y-129795506D01*
X80401185Y-129698815D01*
X80304494Y-129619463D01*
X80194180Y-129560498D01*
X80074482Y-129524188D01*
X79950000Y-129511928D01*
X78250000Y-129511928D01*
X78125518Y-129524188D01*
X78005820Y-129560498D01*
X77895506Y-129619463D01*
X77798815Y-129698815D01*
X77719463Y-129795506D01*
X77660498Y-129905820D01*
X77624188Y-130025518D01*
X77611928Y-130150000D01*
X61906802Y-130150000D01*
X61874639Y-130089470D01*
X61865177Y-130075308D01*
X61416481Y-129763124D01*
X59179605Y-132000000D01*
X58820395Y-132000000D01*
X56583519Y-129763124D01*
X56134823Y-130075308D01*
X55814388Y-130671259D01*
X55660000Y-131175724D01*
X55660000Y-131032279D01*
X55707670Y-130546107D01*
X55839489Y-130109502D01*
X56053600Y-129706815D01*
X56341848Y-129353388D01*
X56693261Y-129062673D01*
X57094439Y-128845758D01*
X57530113Y-128710894D01*
X58014344Y-128660000D01*
X58178821Y-128660000D01*
X57686994Y-128807870D01*
%TA.AperFunction,Conductor*%
D21*
G36*
X57686994Y-128807870D02*
G01*
X57089470Y-129125361D01*
X57075308Y-129134823D01*
X56763124Y-129583519D01*
X59000000Y-131820395D01*
X61236876Y-129583519D01*
X60924692Y-129134823D01*
X60328741Y-128814388D01*
X59824276Y-128660000D01*
X68239636Y-128660000D01*
X68169463Y-128745506D01*
X68110498Y-128855820D01*
X68074188Y-128975518D01*
X68061928Y-129100000D01*
X68065000Y-129814250D01*
X68223750Y-129973000D01*
X69873000Y-129973000D01*
X69873000Y-129953000D01*
X70127000Y-129953000D01*
X70127000Y-129973000D01*
X71776250Y-129973000D01*
X71935000Y-129814250D01*
X71938072Y-129100000D01*
X71925812Y-128975518D01*
X71889502Y-128855820D01*
X71830537Y-128745506D01*
X71760364Y-128660000D01*
X147178821Y-128660000D01*
X146686994Y-128807870D01*
X146089470Y-129125361D01*
X146075308Y-129134823D01*
X145763124Y-129583519D01*
X148000000Y-131820395D01*
X150236876Y-129583519D01*
X149924692Y-129134823D01*
X149328741Y-128814388D01*
X148824276Y-128660000D01*
X148967721Y-128660000D01*
X149453893Y-128707670D01*
X149890498Y-128839489D01*
X150293185Y-129053600D01*
X150646612Y-129341848D01*
X150937327Y-129693261D01*
X151154242Y-130094439D01*
X151289106Y-130530113D01*
X151340000Y-131014344D01*
X151340000Y-131178821D01*
X151192130Y-130686994D01*
X150874639Y-130089470D01*
X150865177Y-130075308D01*
X150416481Y-129763124D01*
X148179605Y-132000000D01*
X150416481Y-134236876D01*
X150865177Y-133924692D01*
X151185612Y-133328741D01*
X151340000Y-132824276D01*
X151340001Y-220178824D01*
X151192130Y-219686994D01*
X150874639Y-219089470D01*
X150865177Y-219075308D01*
X150416481Y-218763124D01*
X148179605Y-221000000D01*
X150416481Y-223236876D01*
X150865177Y-222924692D01*
X151185612Y-222328741D01*
X151340001Y-221824272D01*
X151340001Y-221967711D01*
X151292330Y-222453894D01*
X151160512Y-222890497D01*
X150946399Y-223293186D01*
X150658150Y-223646613D01*
X150306739Y-223937327D01*
X149905564Y-224154240D01*
X149469886Y-224289106D01*
X148985664Y-224340000D01*
X148821179Y-224340000D01*
X149313006Y-224192130D01*
X149910530Y-223874639D01*
X149924692Y-223865177D01*
X150236876Y-223416481D01*
X148000000Y-221179605D01*
X145763124Y-223416481D01*
X146075308Y-223865177D01*
X146671259Y-224185612D01*
X147175724Y-224340000D01*
X59821179Y-224340000D01*
X60313006Y-224192130D01*
X60910530Y-223874639D01*
X60924692Y-223865177D01*
X61236876Y-223416481D01*
X59000000Y-221179605D01*
X56763124Y-223416481D01*
X57075308Y-223865177D01*
X57671259Y-224185612D01*
X58175724Y-224340000D01*
X58032279Y-224340000D01*
X57546106Y-224292330D01*
X57109503Y-224160512D01*
X56706814Y-223946399D01*
X56353387Y-223658150D01*
X56062673Y-223306739D01*
X55845760Y-222905564D01*
X55710894Y-222469886D01*
X55660000Y-221985664D01*
X55660000Y-221821179D01*
X55807870Y-222313006D01*
X56125361Y-222910530D01*
X56134823Y-222924692D01*
X56583519Y-223236876D01*
X58820395Y-221000000D01*
X59179605Y-221000000D01*
X61416481Y-223236876D01*
X61865177Y-222924692D01*
X62185612Y-222328741D01*
X62383626Y-221681727D01*
X62437322Y-221150000D01*
X77511928Y-221150000D01*
X77511928Y-222850000D01*
X77524188Y-222974482D01*
X77560498Y-223094180D01*
X77619463Y-223204494D01*
X77698815Y-223301185D01*
X77795506Y-223380537D01*
X77905820Y-223439502D01*
X78025518Y-223475812D01*
X78150000Y-223488072D01*
X79850000Y-223488072D01*
X79974482Y-223475812D01*
X80094180Y-223439502D01*
X80204494Y-223380537D01*
X80301185Y-223301185D01*
X80380537Y-223204494D01*
X80439502Y-223094180D01*
X80461513Y-223021620D01*
X80593368Y-223153475D01*
X80836589Y-223315990D01*
X81106842Y-223427932D01*
X81393740Y-223485000D01*
X81686260Y-223485000D01*
X81973158Y-223427932D01*
X82243411Y-223315990D01*
X82486632Y-223153475D01*
X82693475Y-222946632D01*
X82810000Y-222772240D01*
X82926525Y-222946632D01*
X83133368Y-223153475D01*
X83376589Y-223315990D01*
X83646842Y-223427932D01*
X83933740Y-223485000D01*
X84226260Y-223485000D01*
X84513158Y-223427932D01*
X84783411Y-223315990D01*
X85026632Y-223153475D01*
X85233475Y-222946632D01*
X85350000Y-222772240D01*
X85466525Y-222946632D01*
X85673368Y-223153475D01*
X85916589Y-223315990D01*
X86186842Y-223427932D01*
X86473740Y-223485000D01*
X86766260Y-223485000D01*
X87053158Y-223427932D01*
X87323411Y-223315990D01*
X87566632Y-223153475D01*
X87773475Y-222946632D01*
X87890000Y-222772240D01*
X88006525Y-222946632D01*
X88213368Y-223153475D01*
X88456589Y-223315990D01*
X88726842Y-223427932D01*
X89013740Y-223485000D01*
X89306260Y-223485000D01*
X89593158Y-223427932D01*
X89863411Y-223315990D01*
X90106632Y-223153475D01*
X90313475Y-222946632D01*
X90430000Y-222772240D01*
X90546525Y-222946632D01*
X90753368Y-223153475D01*
X90996589Y-223315990D01*
X91266842Y-223427932D01*
X91553740Y-223485000D01*
X91846260Y-223485000D01*
X92133158Y-223427932D01*
X92403411Y-223315990D01*
X92646632Y-223153475D01*
X92853475Y-222946632D01*
X92970000Y-222772240D01*
X93086525Y-222946632D01*
X93293368Y-223153475D01*
X93536589Y-223315990D01*
X93806842Y-223427932D01*
X94093740Y-223485000D01*
X94386260Y-223485000D01*
X94673158Y-223427932D01*
X94943411Y-223315990D01*
X95186632Y-223153475D01*
X95393475Y-222946632D01*
X95510000Y-222772240D01*
X95626525Y-222946632D01*
X95833368Y-223153475D01*
X96076589Y-223315990D01*
X96346842Y-223427932D01*
X96633740Y-223485000D01*
X96926260Y-223485000D01*
X97213158Y-223427932D01*
X97483411Y-223315990D01*
X97726632Y-223153475D01*
X97933475Y-222946632D01*
X98050000Y-222772240D01*
X98166525Y-222946632D01*
X98373368Y-223153475D01*
X98616589Y-223315990D01*
X98886842Y-223427932D01*
X99173740Y-223485000D01*
X99466260Y-223485000D01*
X99753158Y-223427932D01*
X100023411Y-223315990D01*
X100266632Y-223153475D01*
X100473475Y-222946632D01*
X100590000Y-222772240D01*
X100706525Y-222946632D01*
X100913368Y-223153475D01*
X101156589Y-223315990D01*
X101426842Y-223427932D01*
X101713740Y-223485000D01*
X102006260Y-223485000D01*
X102293158Y-223427932D01*
X102563411Y-223315990D01*
X102806632Y-223153475D01*
X103013475Y-222946632D01*
X103130000Y-222772240D01*
X103246525Y-222946632D01*
X103453368Y-223153475D01*
X103696589Y-223315990D01*
X103966842Y-223427932D01*
X104253740Y-223485000D01*
X104546260Y-223485000D01*
X104833158Y-223427932D01*
X105103411Y-223315990D01*
X105346632Y-223153475D01*
X105553475Y-222946632D01*
X105670000Y-222772240D01*
X105786525Y-222946632D01*
X105993368Y-223153475D01*
X106236589Y-223315990D01*
X106506842Y-223427932D01*
X106793740Y-223485000D01*
X107086260Y-223485000D01*
X107373158Y-223427932D01*
X107643411Y-223315990D01*
X107886632Y-223153475D01*
X108093475Y-222946632D01*
X108210000Y-222772240D01*
X108326525Y-222946632D01*
X108533368Y-223153475D01*
X108776589Y-223315990D01*
X109046842Y-223427932D01*
X109333740Y-223485000D01*
X109626260Y-223485000D01*
X109913158Y-223427932D01*
X110183411Y-223315990D01*
X110426632Y-223153475D01*
X110633475Y-222946632D01*
X110750000Y-222772240D01*
X110866525Y-222946632D01*
X111073368Y-223153475D01*
X111316589Y-223315990D01*
X111586842Y-223427932D01*
X111873740Y-223485000D01*
X112166260Y-223485000D01*
X112453158Y-223427932D01*
X112723411Y-223315990D01*
X112966632Y-223153475D01*
X113173475Y-222946632D01*
X113290000Y-222772240D01*
X113406525Y-222946632D01*
X113613368Y-223153475D01*
X113856589Y-223315990D01*
X114126842Y-223427932D01*
X114413740Y-223485000D01*
X114706260Y-223485000D01*
X114993158Y-223427932D01*
X115263411Y-223315990D01*
X115506632Y-223153475D01*
X115713475Y-222946632D01*
X115830000Y-222772240D01*
X115946525Y-222946632D01*
X116153368Y-223153475D01*
X116396589Y-223315990D01*
X116666842Y-223427932D01*
X116953740Y-223485000D01*
X117246260Y-223485000D01*
X117533158Y-223427932D01*
X117803411Y-223315990D01*
X118046632Y-223153475D01*
X118253475Y-222946632D01*
X118370000Y-222772240D01*
X118486525Y-222946632D01*
X118693368Y-223153475D01*
X118936589Y-223315990D01*
X119206842Y-223427932D01*
X119493740Y-223485000D01*
X119786260Y-223485000D01*
X120073158Y-223427932D01*
X120343411Y-223315990D01*
X120586632Y-223153475D01*
X120793475Y-222946632D01*
X120915195Y-222764466D01*
X120984822Y-222881355D01*
X121179731Y-223097588D01*
X121413080Y-223271641D01*
X121675901Y-223396825D01*
X121823110Y-223441476D01*
X122053000Y-223320155D01*
X122053000Y-222127000D01*
X122307000Y-222127000D01*
X122307000Y-223320155D01*
X122536890Y-223441476D01*
X122684099Y-223396825D01*
X122946920Y-223271641D01*
X123180269Y-223097588D01*
X123375178Y-222881355D01*
X123450000Y-222755745D01*
X123524822Y-222881355D01*
X123719731Y-223097588D01*
X123953080Y-223271641D01*
X124215901Y-223396825D01*
X124363110Y-223441476D01*
X124593000Y-223320155D01*
X124593000Y-222127000D01*
X124847000Y-222127000D01*
X124847000Y-223320155D01*
X125076890Y-223441476D01*
X125224099Y-223396825D01*
X125486920Y-223271641D01*
X125720269Y-223097588D01*
X125915178Y-222881355D01*
X125990000Y-222755745D01*
X126064822Y-222881355D01*
X126259731Y-223097588D01*
X126493080Y-223271641D01*
X126755901Y-223396825D01*
X126903110Y-223441476D01*
X127133000Y-223320155D01*
X127133000Y-222127000D01*
X127387000Y-222127000D01*
X127387000Y-223320155D01*
X127616890Y-223441476D01*
X127764099Y-223396825D01*
X128026920Y-223271641D01*
X128260269Y-223097588D01*
X128455178Y-222881355D01*
X128604157Y-222631252D01*
X128701481Y-222356891D01*
X128580814Y-222127000D01*
X127387000Y-222127000D01*
X127133000Y-222127000D01*
X124847000Y-222127000D01*
X124593000Y-222127000D01*
X122307000Y-222127000D01*
X122053000Y-222127000D01*
X122033000Y-222127000D01*
X122033000Y-221873000D01*
X122053000Y-221873000D01*
X122053000Y-220679845D01*
X122307000Y-220679845D01*
X122307000Y-221873000D01*
X124593000Y-221873000D01*
X124593000Y-220679845D01*
X124847000Y-220679845D01*
X124847000Y-221873000D01*
X127133000Y-221873000D01*
X127133000Y-220679845D01*
X127387000Y-220679845D01*
X127387000Y-221873000D01*
X128580814Y-221873000D01*
X128701481Y-221643109D01*
X128604157Y-221368748D01*
X128455178Y-221118645D01*
X128340558Y-220991484D01*
X144548390Y-220991484D01*
X144613051Y-221665023D01*
X144807870Y-222313006D01*
X145125361Y-222910530D01*
X145134823Y-222924692D01*
X145583519Y-223236876D01*
X147820395Y-221000000D01*
X145583519Y-218763124D01*
X145134823Y-219075308D01*
X144814388Y-219671259D01*
X144616374Y-220318273D01*
X144548390Y-220991484D01*
X128340558Y-220991484D01*
X128260269Y-220902412D01*
X128026920Y-220728359D01*
X127764099Y-220603175D01*
X127616890Y-220558524D01*
X127387000Y-220679845D01*
X127133000Y-220679845D01*
X126903110Y-220558524D01*
X126755901Y-220603175D01*
X126493080Y-220728359D01*
X126259731Y-220902412D01*
X126064822Y-221118645D01*
X125990000Y-221244255D01*
X125915178Y-221118645D01*
X125720269Y-220902412D01*
X125486920Y-220728359D01*
X125224099Y-220603175D01*
X125076890Y-220558524D01*
X124847000Y-220679845D01*
X124593000Y-220679845D01*
X124363110Y-220558524D01*
X124215901Y-220603175D01*
X123953080Y-220728359D01*
X123719731Y-220902412D01*
X123524822Y-221118645D01*
X123450000Y-221244255D01*
X123375178Y-221118645D01*
X123180269Y-220902412D01*
X122946920Y-220728359D01*
X122684099Y-220603175D01*
X122536890Y-220558524D01*
X122307000Y-220679845D01*
X122053000Y-220679845D01*
X121823110Y-220558524D01*
X121675901Y-220603175D01*
X121413080Y-220728359D01*
X121179731Y-220902412D01*
X120984822Y-221118645D01*
X120915195Y-221235534D01*
X120793475Y-221053368D01*
X120586632Y-220846525D01*
X120343411Y-220684010D01*
X120073158Y-220572068D01*
X119786260Y-220515000D01*
X119493740Y-220515000D01*
X119206842Y-220572068D01*
X118936589Y-220684010D01*
X118693368Y-220846525D01*
X118486525Y-221053368D01*
X118370000Y-221227760D01*
X118253475Y-221053368D01*
X118046632Y-220846525D01*
X117803411Y-220684010D01*
X117533158Y-220572068D01*
X117246260Y-220515000D01*
X116953740Y-220515000D01*
X116666842Y-220572068D01*
X116396589Y-220684010D01*
X116153368Y-220846525D01*
X115946525Y-221053368D01*
X115830000Y-221227760D01*
X115713475Y-221053368D01*
X115506632Y-220846525D01*
X115263411Y-220684010D01*
X114993158Y-220572068D01*
X114706260Y-220515000D01*
X114413740Y-220515000D01*
X114126842Y-220572068D01*
X113856589Y-220684010D01*
X113613368Y-220846525D01*
X113406525Y-221053368D01*
X113290000Y-221227760D01*
X113173475Y-221053368D01*
X112966632Y-220846525D01*
X112723411Y-220684010D01*
X112453158Y-220572068D01*
X112166260Y-220515000D01*
X111873740Y-220515000D01*
X111586842Y-220572068D01*
X111316589Y-220684010D01*
X111073368Y-220846525D01*
X110866525Y-221053368D01*
X110750000Y-221227760D01*
X110633475Y-221053368D01*
X110426632Y-220846525D01*
X110183411Y-220684010D01*
X109913158Y-220572068D01*
X109626260Y-220515000D01*
X109333740Y-220515000D01*
X109046842Y-220572068D01*
X108776589Y-220684010D01*
X108533368Y-220846525D01*
X108326525Y-221053368D01*
X108210000Y-221227760D01*
X108093475Y-221053368D01*
X107886632Y-220846525D01*
X107643411Y-220684010D01*
X107373158Y-220572068D01*
X107086260Y-220515000D01*
X106793740Y-220515000D01*
X106506842Y-220572068D01*
X106236589Y-220684010D01*
X105993368Y-220846525D01*
X105786525Y-221053368D01*
X105670000Y-221227760D01*
X105553475Y-221053368D01*
X105346632Y-220846525D01*
X105103411Y-220684010D01*
X104833158Y-220572068D01*
X104546260Y-220515000D01*
X104253740Y-220515000D01*
X103966842Y-220572068D01*
X103696589Y-220684010D01*
X103453368Y-220846525D01*
X103246525Y-221053368D01*
X103130000Y-221227760D01*
X103013475Y-221053368D01*
X102806632Y-220846525D01*
X102563411Y-220684010D01*
X102293158Y-220572068D01*
X102006260Y-220515000D01*
X101713740Y-220515000D01*
X101426842Y-220572068D01*
X101156589Y-220684010D01*
X100913368Y-220846525D01*
X100706525Y-221053368D01*
X100590000Y-221227760D01*
X100473475Y-221053368D01*
X100266632Y-220846525D01*
X100023411Y-220684010D01*
X99753158Y-220572068D01*
X99466260Y-220515000D01*
X99173740Y-220515000D01*
X98886842Y-220572068D01*
X98616589Y-220684010D01*
X98373368Y-220846525D01*
X98166525Y-221053368D01*
X98050000Y-221227760D01*
X97933475Y-221053368D01*
X97726632Y-220846525D01*
X97483411Y-220684010D01*
X97213158Y-220572068D01*
X96926260Y-220515000D01*
X96633740Y-220515000D01*
X96346842Y-220572068D01*
X96076589Y-220684010D01*
X95833368Y-220846525D01*
X95626525Y-221053368D01*
X95510000Y-221227760D01*
X95393475Y-221053368D01*
X95186632Y-220846525D01*
X94943411Y-220684010D01*
X94673158Y-220572068D01*
X94386260Y-220515000D01*
X94093740Y-220515000D01*
X93806842Y-220572068D01*
X93536589Y-220684010D01*
X93293368Y-220846525D01*
X93086525Y-221053368D01*
X92970000Y-221227760D01*
X92853475Y-221053368D01*
X92646632Y-220846525D01*
X92403411Y-220684010D01*
X92133158Y-220572068D01*
X91846260Y-220515000D01*
X91553740Y-220515000D01*
X91266842Y-220572068D01*
X90996589Y-220684010D01*
X90753368Y-220846525D01*
X90546525Y-221053368D01*
X90430000Y-221227760D01*
X90313475Y-221053368D01*
X90106632Y-220846525D01*
X89863411Y-220684010D01*
X89593158Y-220572068D01*
X89306260Y-220515000D01*
X89013740Y-220515000D01*
X88726842Y-220572068D01*
X88456589Y-220684010D01*
X88213368Y-220846525D01*
X88006525Y-221053368D01*
X87890000Y-221227760D01*
X87773475Y-221053368D01*
X87566632Y-220846525D01*
X87323411Y-220684010D01*
X87053158Y-220572068D01*
X86766260Y-220515000D01*
X86473740Y-220515000D01*
X86186842Y-220572068D01*
X85916589Y-220684010D01*
X85673368Y-220846525D01*
X85466525Y-221053368D01*
X85350000Y-221227760D01*
X85233475Y-221053368D01*
X85026632Y-220846525D01*
X84783411Y-220684010D01*
X84513158Y-220572068D01*
X84226260Y-220515000D01*
X83933740Y-220515000D01*
X83646842Y-220572068D01*
X83376589Y-220684010D01*
X83133368Y-220846525D01*
X82926525Y-221053368D01*
X82810000Y-221227760D01*
X82693475Y-221053368D01*
X82486632Y-220846525D01*
X82243411Y-220684010D01*
X81973158Y-220572068D01*
X81686260Y-220515000D01*
X81393740Y-220515000D01*
X81106842Y-220572068D01*
X80836589Y-220684010D01*
X80593368Y-220846525D01*
X80461513Y-220978380D01*
X80439502Y-220905820D01*
X80380537Y-220795506D01*
X80301185Y-220698815D01*
X80204494Y-220619463D01*
X80094180Y-220560498D01*
X79974482Y-220524188D01*
X79850000Y-220511928D01*
X78150000Y-220511928D01*
X78025518Y-220524188D01*
X77905820Y-220560498D01*
X77795506Y-220619463D01*
X77698815Y-220698815D01*
X77619463Y-220795506D01*
X77560498Y-220905820D01*
X77524188Y-221025518D01*
X77511928Y-221150000D01*
X62437322Y-221150000D01*
X62451610Y-221008516D01*
X62386949Y-220334977D01*
X62192130Y-219686994D01*
X61874639Y-219089470D01*
X61865177Y-219075308D01*
X61416481Y-218763124D01*
X59179605Y-221000000D01*
X58820395Y-221000000D01*
X56583519Y-218763124D01*
X56134823Y-219075308D01*
X55814388Y-219671259D01*
X55660000Y-220175724D01*
X55660000Y-218583519D01*
X56763124Y-218583519D01*
X59000000Y-220820395D01*
X61236876Y-218583519D01*
X145763124Y-218583519D01*
X148000000Y-220820395D01*
X150236876Y-218583519D01*
X149924692Y-218134823D01*
X149328741Y-217814388D01*
X148681727Y-217616374D01*
X148008516Y-217548390D01*
X147334977Y-217613051D01*
X146686994Y-217807870D01*
X146089470Y-218125361D01*
X146075308Y-218134823D01*
X145763124Y-218583519D01*
X61236876Y-218583519D01*
X60924692Y-218134823D01*
X60328741Y-217814388D01*
X59681727Y-217616374D01*
X59008516Y-217548390D01*
X58334977Y-217613051D01*
X57686994Y-217807870D01*
X57089470Y-218125361D01*
X57075308Y-218134823D01*
X56763124Y-218583519D01*
X55660000Y-218583519D01*
X55660000Y-194338967D01*
X62365000Y-194338967D01*
X62365000Y-194661033D01*
X62427832Y-194976912D01*
X62551082Y-195274463D01*
X62730013Y-195542252D01*
X62957748Y-195769987D01*
X63225537Y-195948918D01*
X63523088Y-196072168D01*
X63838967Y-196135000D01*
X64161033Y-196135000D01*
X64476912Y-196072168D01*
X64774463Y-195948918D01*
X65042252Y-195769987D01*
X65269987Y-195542252D01*
X65448918Y-195274463D01*
X65572168Y-194976912D01*
X65635000Y-194661033D01*
X65635000Y-194338967D01*
X68865000Y-194338967D01*
X68865000Y-194661033D01*
X68927832Y-194976912D01*
X69051082Y-195274463D01*
X69230013Y-195542252D01*
X69457748Y-195769987D01*
X69725537Y-195948918D01*
X70023088Y-196072168D01*
X70338967Y-196135000D01*
X70661033Y-196135000D01*
X70976912Y-196072168D01*
X71274463Y-195948918D01*
X71542252Y-195769987D01*
X71769987Y-195542252D01*
X71948918Y-195274463D01*
X72072168Y-194976912D01*
X72135000Y-194661033D01*
X72135000Y-194338967D01*
X77365000Y-194338967D01*
X77365000Y-194661033D01*
X77427832Y-194976912D01*
X77551082Y-195274463D01*
X77730013Y-195542252D01*
X77957748Y-195769987D01*
X78225537Y-195948918D01*
X78523088Y-196072168D01*
X78838967Y-196135000D01*
X79161033Y-196135000D01*
X79476912Y-196072168D01*
X79774463Y-195948918D01*
X80042252Y-195769987D01*
X80269987Y-195542252D01*
X80448918Y-195274463D01*
X80572168Y-194976912D01*
X80635000Y-194661033D01*
X80635000Y-194338967D01*
X83865000Y-194338967D01*
X83865000Y-194661033D01*
X83927832Y-194976912D01*
X84051082Y-195274463D01*
X84230013Y-195542252D01*
X84457748Y-195769987D01*
X84725537Y-195948918D01*
X85023088Y-196072168D01*
X85338967Y-196135000D01*
X85661033Y-196135000D01*
X85836990Y-196100000D01*
X100261928Y-196100000D01*
X100261928Y-198100000D01*
X100274188Y-198224482D01*
X100310498Y-198344180D01*
X100369463Y-198454494D01*
X100448815Y-198551185D01*
X100545506Y-198630537D01*
X100655820Y-198689502D01*
X100775518Y-198725812D01*
X100900000Y-198738072D01*
X104100000Y-198738072D01*
X104224482Y-198725812D01*
X104344180Y-198689502D01*
X104454494Y-198630537D01*
X104551185Y-198551185D01*
X104630537Y-198454494D01*
X104689502Y-198344180D01*
X104725812Y-198224482D01*
X104738072Y-198100000D01*
X104738072Y-196100000D01*
X104725812Y-195975518D01*
X104689502Y-195855820D01*
X104630537Y-195745506D01*
X104551185Y-195648815D01*
X104454494Y-195569463D01*
X104344180Y-195510498D01*
X104224482Y-195474188D01*
X104100000Y-195461928D01*
X100900000Y-195461928D01*
X100775518Y-195474188D01*
X100655820Y-195510498D01*
X100545506Y-195569463D01*
X100448815Y-195648815D01*
X100369463Y-195745506D01*
X100310498Y-195855820D01*
X100274188Y-195975518D01*
X100261928Y-196100000D01*
X85836990Y-196100000D01*
X85976912Y-196072168D01*
X86274463Y-195948918D01*
X86542252Y-195769987D01*
X86769987Y-195542252D01*
X86948918Y-195274463D01*
X87072168Y-194976912D01*
X87135000Y-194661033D01*
X87135000Y-194338967D01*
X87072168Y-194023088D01*
X86995903Y-193838967D01*
X93365000Y-193838967D01*
X93365000Y-194161033D01*
X93427832Y-194476912D01*
X93551082Y-194774463D01*
X93730013Y-195042252D01*
X93957748Y-195269987D01*
X94225537Y-195448918D01*
X94523088Y-195572168D01*
X94838967Y-195635000D01*
X95161033Y-195635000D01*
X95476912Y-195572168D01*
X95774463Y-195448918D01*
X96042252Y-195269987D01*
X96269987Y-195042252D01*
X96448918Y-194774463D01*
X96572168Y-194476912D01*
X96635000Y-194161033D01*
X96635000Y-193838967D01*
X107865000Y-193838967D01*
X107865000Y-194161033D01*
X107927832Y-194476912D01*
X108051082Y-194774463D01*
X108230013Y-195042252D01*
X108457748Y-195269987D01*
X108725537Y-195448918D01*
X109023088Y-195572168D01*
X109338967Y-195635000D01*
X109661033Y-195635000D01*
X109976912Y-195572168D01*
X110274463Y-195448918D01*
X110542252Y-195269987D01*
X110769987Y-195042252D01*
X110948918Y-194774463D01*
X111072168Y-194476912D01*
X111099606Y-194338967D01*
X117365000Y-194338967D01*
X117365000Y-194661033D01*
X117427832Y-194976912D01*
X117551082Y-195274463D01*
X117730013Y-195542252D01*
X117957748Y-195769987D01*
X118225537Y-195948918D01*
X118523088Y-196072168D01*
X118838967Y-196135000D01*
X119161033Y-196135000D01*
X119476912Y-196072168D01*
X119774463Y-195948918D01*
X120042252Y-195769987D01*
X120269987Y-195542252D01*
X120448918Y-195274463D01*
X120572168Y-194976912D01*
X120635000Y-194661033D01*
X120635000Y-194338967D01*
X123865000Y-194338967D01*
X123865000Y-194661033D01*
X123927832Y-194976912D01*
X124051082Y-195274463D01*
X124230013Y-195542252D01*
X124457748Y-195769987D01*
X124725537Y-195948918D01*
X125023088Y-196072168D01*
X125338967Y-196135000D01*
X125661033Y-196135000D01*
X125976912Y-196072168D01*
X126274463Y-195948918D01*
X126542252Y-195769987D01*
X126769987Y-195542252D01*
X126948918Y-195274463D01*
X127072168Y-194976912D01*
X127135000Y-194661033D01*
X127135000Y-194338967D01*
X133365000Y-194338967D01*
X133365000Y-194661033D01*
X133427832Y-194976912D01*
X133551082Y-195274463D01*
X133730013Y-195542252D01*
X133957748Y-195769987D01*
X134225537Y-195948918D01*
X134523088Y-196072168D01*
X134838967Y-196135000D01*
X135161033Y-196135000D01*
X135476912Y-196072168D01*
X135774463Y-195948918D01*
X136042252Y-195769987D01*
X136269987Y-195542252D01*
X136448918Y-195274463D01*
X136572168Y-194976912D01*
X136635000Y-194661033D01*
X136635000Y-194338967D01*
X139865000Y-194338967D01*
X139865000Y-194661033D01*
X139927832Y-194976912D01*
X140051082Y-195274463D01*
X140230013Y-195542252D01*
X140457748Y-195769987D01*
X140725537Y-195948918D01*
X141023088Y-196072168D01*
X141338967Y-196135000D01*
X141661033Y-196135000D01*
X141976912Y-196072168D01*
X142274463Y-195948918D01*
X142542252Y-195769987D01*
X142769987Y-195542252D01*
X142948918Y-195274463D01*
X143072168Y-194976912D01*
X143135000Y-194661033D01*
X143135000Y-194338967D01*
X143072168Y-194023088D01*
X142948918Y-193725537D01*
X142769987Y-193457748D01*
X142542252Y-193230013D01*
X142274463Y-193051082D01*
X141976912Y-192927832D01*
X141661033Y-192865000D01*
X141338967Y-192865000D01*
X141023088Y-192927832D01*
X140725537Y-193051082D01*
X140457748Y-193230013D01*
X140230013Y-193457748D01*
X140051082Y-193725537D01*
X139927832Y-194023088D01*
X139865000Y-194338967D01*
X136635000Y-194338967D01*
X136572168Y-194023088D01*
X136448918Y-193725537D01*
X136269987Y-193457748D01*
X136042252Y-193230013D01*
X135774463Y-193051082D01*
X135476912Y-192927832D01*
X135161033Y-192865000D01*
X134838967Y-192865000D01*
X134523088Y-192927832D01*
X134225537Y-193051082D01*
X133957748Y-193230013D01*
X133730013Y-193457748D01*
X133551082Y-193725537D01*
X133427832Y-194023088D01*
X133365000Y-194338967D01*
X127135000Y-194338967D01*
X127072168Y-194023088D01*
X126948918Y-193725537D01*
X126769987Y-193457748D01*
X126542252Y-193230013D01*
X126274463Y-193051082D01*
X125976912Y-192927832D01*
X125661033Y-192865000D01*
X125338967Y-192865000D01*
X125023088Y-192927832D01*
X124725537Y-193051082D01*
X124457748Y-193230013D01*
X124230013Y-193457748D01*
X124051082Y-193725537D01*
X123927832Y-194023088D01*
X123865000Y-194338967D01*
X120635000Y-194338967D01*
X120572168Y-194023088D01*
X120448918Y-193725537D01*
X120269987Y-193457748D01*
X120042252Y-193230013D01*
X119774463Y-193051082D01*
X119476912Y-192927832D01*
X119161033Y-192865000D01*
X118838967Y-192865000D01*
X118523088Y-192927832D01*
X118225537Y-193051082D01*
X117957748Y-193230013D01*
X117730013Y-193457748D01*
X117551082Y-193725537D01*
X117427832Y-194023088D01*
X117365000Y-194338967D01*
X111099606Y-194338967D01*
X111135000Y-194161033D01*
X111135000Y-193838967D01*
X111072168Y-193523088D01*
X110948918Y-193225537D01*
X110769987Y-192957748D01*
X110542252Y-192730013D01*
X110274463Y-192551082D01*
X109976912Y-192427832D01*
X109661033Y-192365000D01*
X109338967Y-192365000D01*
X109023088Y-192427832D01*
X108725537Y-192551082D01*
X108457748Y-192730013D01*
X108230013Y-192957748D01*
X108051082Y-193225537D01*
X107927832Y-193523088D01*
X107865000Y-193838967D01*
X96635000Y-193838967D01*
X96572168Y-193523088D01*
X96448918Y-193225537D01*
X96269987Y-192957748D01*
X96042252Y-192730013D01*
X95945065Y-192665075D01*
X95955808Y-192635413D01*
X95000000Y-191679605D01*
X94044192Y-192635413D01*
X94054935Y-192665075D01*
X93957748Y-192730013D01*
X93730013Y-192957748D01*
X93551082Y-193225537D01*
X93427832Y-193523088D01*
X93365000Y-193838967D01*
X86995903Y-193838967D01*
X86948918Y-193725537D01*
X86769987Y-193457748D01*
X86542252Y-193230013D01*
X86274463Y-193051082D01*
X85976912Y-192927832D01*
X85661033Y-192865000D01*
X85338967Y-192865000D01*
X85023088Y-192927832D01*
X84725537Y-193051082D01*
X84457748Y-193230013D01*
X84230013Y-193457748D01*
X84051082Y-193725537D01*
X83927832Y-194023088D01*
X83865000Y-194338967D01*
X80635000Y-194338967D01*
X80572168Y-194023088D01*
X80448918Y-193725537D01*
X80269987Y-193457748D01*
X80042252Y-193230013D01*
X79774463Y-193051082D01*
X79476912Y-192927832D01*
X79161033Y-192865000D01*
X78838967Y-192865000D01*
X78523088Y-192927832D01*
X78225537Y-193051082D01*
X77957748Y-193230013D01*
X77730013Y-193457748D01*
X77551082Y-193725537D01*
X77427832Y-194023088D01*
X77365000Y-194338967D01*
X72135000Y-194338967D01*
X72072168Y-194023088D01*
X71948918Y-193725537D01*
X71769987Y-193457748D01*
X71542252Y-193230013D01*
X71274463Y-193051082D01*
X70976912Y-192927832D01*
X70661033Y-192865000D01*
X70338967Y-192865000D01*
X70023088Y-192927832D01*
X69725537Y-193051082D01*
X69457748Y-193230013D01*
X69230013Y-193457748D01*
X69051082Y-193725537D01*
X68927832Y-194023088D01*
X68865000Y-194338967D01*
X65635000Y-194338967D01*
X65572168Y-194023088D01*
X65448918Y-193725537D01*
X65269987Y-193457748D01*
X65042252Y-193230013D01*
X64774463Y-193051082D01*
X64476912Y-192927832D01*
X64161033Y-192865000D01*
X63838967Y-192865000D01*
X63523088Y-192927832D01*
X63225537Y-193051082D01*
X62957748Y-193230013D01*
X62730013Y-193457748D01*
X62551082Y-193725537D01*
X62427832Y-194023088D01*
X62365000Y-194338967D01*
X55660000Y-194338967D01*
X55660000Y-191135413D01*
X63044192Y-191135413D01*
X63139956Y-191399814D01*
X63429571Y-191540704D01*
X63741108Y-191622384D01*
X64062595Y-191641718D01*
X64381675Y-191597961D01*
X64686088Y-191492795D01*
X64860044Y-191399814D01*
X64955808Y-191135413D01*
X69544192Y-191135413D01*
X69639956Y-191399814D01*
X69929571Y-191540704D01*
X70241108Y-191622384D01*
X70562595Y-191641718D01*
X70881675Y-191597961D01*
X71186088Y-191492795D01*
X71360044Y-191399814D01*
X71455808Y-191135413D01*
X78044192Y-191135413D01*
X78139956Y-191399814D01*
X78429571Y-191540704D01*
X78741108Y-191622384D01*
X79062595Y-191641718D01*
X79381675Y-191597961D01*
X79686088Y-191492795D01*
X79860044Y-191399814D01*
X79955808Y-191135413D01*
X84544192Y-191135413D01*
X84639956Y-191399814D01*
X84929571Y-191540704D01*
X85241108Y-191622384D01*
X85562595Y-191641718D01*
X85881675Y-191597961D01*
X85984045Y-191562595D01*
X93358282Y-191562595D01*
X93402039Y-191881675D01*
X93507205Y-192186088D01*
X93600186Y-192360044D01*
X93864587Y-192455808D01*
X94820395Y-191500000D01*
X94806253Y-191485858D01*
X94985858Y-191306253D01*
X95000000Y-191320395D01*
X95014143Y-191306253D01*
X95193748Y-191485858D01*
X95179605Y-191500000D01*
X96135413Y-192455808D01*
X96399814Y-192360044D01*
X96540704Y-192070429D01*
X96622384Y-191758892D01*
X96641718Y-191437405D01*
X96600305Y-191135413D01*
X118044192Y-191135413D01*
X118139956Y-191399814D01*
X118429571Y-191540704D01*
X118741108Y-191622384D01*
X119062595Y-191641718D01*
X119381675Y-191597961D01*
X119686088Y-191492795D01*
X119860044Y-191399814D01*
X119955808Y-191135413D01*
X124544192Y-191135413D01*
X124639956Y-191399814D01*
X124929571Y-191540704D01*
X125241108Y-191622384D01*
X125562595Y-191641718D01*
X125881675Y-191597961D01*
X126186088Y-191492795D01*
X126360044Y-191399814D01*
X126455808Y-191135413D01*
X134044192Y-191135413D01*
X134139956Y-191399814D01*
X134429571Y-191540704D01*
X134741108Y-191622384D01*
X135062595Y-191641718D01*
X135381675Y-191597961D01*
X135686088Y-191492795D01*
X135860044Y-191399814D01*
X135955808Y-191135413D01*
X140544192Y-191135413D01*
X140639956Y-191399814D01*
X140929571Y-191540704D01*
X141241108Y-191622384D01*
X141562595Y-191641718D01*
X141881675Y-191597961D01*
X142186088Y-191492795D01*
X142360044Y-191399814D01*
X142455808Y-191135413D01*
X141500000Y-190179605D01*
X140544192Y-191135413D01*
X135955808Y-191135413D01*
X135000000Y-190179605D01*
X134044192Y-191135413D01*
X126455808Y-191135413D01*
X125500000Y-190179605D01*
X124544192Y-191135413D01*
X119955808Y-191135413D01*
X119000000Y-190179605D01*
X118044192Y-191135413D01*
X96600305Y-191135413D01*
X96597961Y-191118325D01*
X96492795Y-190813912D01*
X96399814Y-190639956D01*
X96250777Y-190585976D01*
X96354494Y-190530537D01*
X96451185Y-190451185D01*
X96530537Y-190354494D01*
X96589502Y-190244180D01*
X96622496Y-190135413D01*
X108544192Y-190135413D01*
X108639956Y-190399814D01*
X108929571Y-190540704D01*
X109241108Y-190622384D01*
X109562595Y-190641718D01*
X109881675Y-190597961D01*
X110186088Y-190492795D01*
X110360044Y-190399814D01*
X110455808Y-190135413D01*
X110382990Y-190062595D01*
X117358282Y-190062595D01*
X117402039Y-190381675D01*
X117507205Y-190686088D01*
X117600186Y-190860044D01*
X117864587Y-190955808D01*
X118820395Y-190000000D01*
X119179605Y-190000000D01*
X120135413Y-190955808D01*
X120399814Y-190860044D01*
X120540704Y-190570429D01*
X120622384Y-190258892D01*
X120634189Y-190062595D01*
X123858282Y-190062595D01*
X123902039Y-190381675D01*
X124007205Y-190686088D01*
X124100186Y-190860044D01*
X124364587Y-190955808D01*
X125320395Y-190000000D01*
X125679605Y-190000000D01*
X126635413Y-190955808D01*
X126899814Y-190860044D01*
X127040704Y-190570429D01*
X127122384Y-190258892D01*
X127134189Y-190062595D01*
X133358282Y-190062595D01*
X133402039Y-190381675D01*
X133507205Y-190686088D01*
X133600186Y-190860044D01*
X133864587Y-190955808D01*
X134820395Y-190000000D01*
X135179605Y-190000000D01*
X136135413Y-190955808D01*
X136399814Y-190860044D01*
X136540704Y-190570429D01*
X136622384Y-190258892D01*
X136634189Y-190062595D01*
X139858282Y-190062595D01*
X139902039Y-190381675D01*
X140007205Y-190686088D01*
X140100186Y-190860044D01*
X140364587Y-190955808D01*
X141320395Y-190000000D01*
X141679605Y-190000000D01*
X142635413Y-190955808D01*
X142899814Y-190860044D01*
X143040704Y-190570429D01*
X143122384Y-190258892D01*
X143141718Y-189937405D01*
X143097961Y-189618325D01*
X142992795Y-189313912D01*
X142899814Y-189139956D01*
X142635413Y-189044192D01*
X141679605Y-190000000D01*
X141320395Y-190000000D01*
X140364587Y-189044192D01*
X140100186Y-189139956D01*
X139959296Y-189429571D01*
X139877616Y-189741108D01*
X139858282Y-190062595D01*
X136634189Y-190062595D01*
X136641718Y-189937405D01*
X136597961Y-189618325D01*
X136492795Y-189313912D01*
X136399814Y-189139956D01*
X136135413Y-189044192D01*
X135179605Y-190000000D01*
X134820395Y-190000000D01*
X133864587Y-189044192D01*
X133600186Y-189139956D01*
X133459296Y-189429571D01*
X133377616Y-189741108D01*
X133358282Y-190062595D01*
X127134189Y-190062595D01*
X127141718Y-189937405D01*
X127097961Y-189618325D01*
X126992795Y-189313912D01*
X126899814Y-189139956D01*
X126635413Y-189044192D01*
X125679605Y-190000000D01*
X125320395Y-190000000D01*
X124364587Y-189044192D01*
X124100186Y-189139956D01*
X123959296Y-189429571D01*
X123877616Y-189741108D01*
X123858282Y-190062595D01*
X120634189Y-190062595D01*
X120641718Y-189937405D01*
X120597961Y-189618325D01*
X120492795Y-189313912D01*
X120399814Y-189139956D01*
X120135413Y-189044192D01*
X119179605Y-190000000D01*
X118820395Y-190000000D01*
X117864587Y-189044192D01*
X117600186Y-189139956D01*
X117459296Y-189429571D01*
X117377616Y-189741108D01*
X117358282Y-190062595D01*
X110382990Y-190062595D01*
X109500000Y-189179605D01*
X108544192Y-190135413D01*
X96622496Y-190135413D01*
X96625812Y-190124482D01*
X96638072Y-190000000D01*
X96638072Y-189062595D01*
X107858282Y-189062595D01*
X107902039Y-189381675D01*
X108007205Y-189686088D01*
X108100186Y-189860044D01*
X108364587Y-189955808D01*
X109320395Y-189000000D01*
X109679605Y-189000000D01*
X110635413Y-189955808D01*
X110899814Y-189860044D01*
X111040704Y-189570429D01*
X111122384Y-189258892D01*
X111141718Y-188937405D01*
X111131733Y-188864587D01*
X118044192Y-188864587D01*
X119000000Y-189820395D01*
X119955808Y-188864587D01*
X124544192Y-188864587D01*
X125500000Y-189820395D01*
X126455808Y-188864587D01*
X134044192Y-188864587D01*
X135000000Y-189820395D01*
X135955808Y-188864587D01*
X140544192Y-188864587D01*
X141500000Y-189820395D01*
X142455808Y-188864587D01*
X142360044Y-188600186D01*
X142070429Y-188459296D01*
X141758892Y-188377616D01*
X141437405Y-188358282D01*
X141118325Y-188402039D01*
X140813912Y-188507205D01*
X140639956Y-188600186D01*
X140544192Y-188864587D01*
X135955808Y-188864587D01*
X135860044Y-188600186D01*
X135570429Y-188459296D01*
X135258892Y-188377616D01*
X134937405Y-188358282D01*
X134618325Y-188402039D01*
X134313912Y-188507205D01*
X134139956Y-188600186D01*
X134044192Y-188864587D01*
X126455808Y-188864587D01*
X126360044Y-188600186D01*
X126070429Y-188459296D01*
X125758892Y-188377616D01*
X125437405Y-188358282D01*
X125118325Y-188402039D01*
X124813912Y-188507205D01*
X124639956Y-188600186D01*
X124544192Y-188864587D01*
X119955808Y-188864587D01*
X119860044Y-188600186D01*
X119570429Y-188459296D01*
X119258892Y-188377616D01*
X118937405Y-188358282D01*
X118618325Y-188402039D01*
X118313912Y-188507205D01*
X118139956Y-188600186D01*
X118044192Y-188864587D01*
X111131733Y-188864587D01*
X111097961Y-188618325D01*
X110992795Y-188313912D01*
X110899814Y-188139956D01*
X110635413Y-188044192D01*
X109679605Y-189000000D01*
X109320395Y-189000000D01*
X108364587Y-188044192D01*
X108100186Y-188139956D01*
X107959296Y-188429571D01*
X107877616Y-188741108D01*
X107858282Y-189062595D01*
X96638072Y-189062595D01*
X96638072Y-188000000D01*
X96625812Y-187875518D01*
X96622497Y-187864587D01*
X108544192Y-187864587D01*
X109500000Y-188820395D01*
X110455808Y-187864587D01*
X110360044Y-187600186D01*
X110070429Y-187459296D01*
X109758892Y-187377616D01*
X109437405Y-187358282D01*
X109118325Y-187402039D01*
X108813912Y-187507205D01*
X108639956Y-187600186D01*
X108544192Y-187864587D01*
X96622497Y-187864587D01*
X96589502Y-187755820D01*
X96530537Y-187645506D01*
X96451185Y-187548815D01*
X96354494Y-187469463D01*
X96244180Y-187410498D01*
X96124482Y-187374188D01*
X96000000Y-187361928D01*
X94000000Y-187361928D01*
X93875518Y-187374188D01*
X93755820Y-187410498D01*
X93645506Y-187469463D01*
X93548815Y-187548815D01*
X93469463Y-187645506D01*
X93410498Y-187755820D01*
X93374188Y-187875518D01*
X93361928Y-188000000D01*
X93361928Y-190000000D01*
X93374188Y-190124482D01*
X93410498Y-190244180D01*
X93469463Y-190354494D01*
X93548815Y-190451185D01*
X93645506Y-190530537D01*
X93749223Y-190585976D01*
X93600186Y-190639956D01*
X93459296Y-190929571D01*
X93377616Y-191241108D01*
X93358282Y-191562595D01*
X85984045Y-191562595D01*
X86186088Y-191492795D01*
X86360044Y-191399814D01*
X86455808Y-191135413D01*
X85500000Y-190179605D01*
X84544192Y-191135413D01*
X79955808Y-191135413D01*
X79000000Y-190179605D01*
X78044192Y-191135413D01*
X71455808Y-191135413D01*
X70500000Y-190179605D01*
X69544192Y-191135413D01*
X64955808Y-191135413D01*
X64000000Y-190179605D01*
X63044192Y-191135413D01*
X55660000Y-191135413D01*
X55660000Y-190062595D01*
X62358282Y-190062595D01*
X62402039Y-190381675D01*
X62507205Y-190686088D01*
X62600186Y-190860044D01*
X62864587Y-190955808D01*
X63820395Y-190000000D01*
X64179605Y-190000000D01*
X65135413Y-190955808D01*
X65399814Y-190860044D01*
X65540704Y-190570429D01*
X65622384Y-190258892D01*
X65634189Y-190062595D01*
X68858282Y-190062595D01*
X68902039Y-190381675D01*
X69007205Y-190686088D01*
X69100186Y-190860044D01*
X69364587Y-190955808D01*
X70320395Y-190000000D01*
X70679605Y-190000000D01*
X71635413Y-190955808D01*
X71899814Y-190860044D01*
X72040704Y-190570429D01*
X72122384Y-190258892D01*
X72134189Y-190062595D01*
X77358282Y-190062595D01*
X77402039Y-190381675D01*
X77507205Y-190686088D01*
X77600186Y-190860044D01*
X77864587Y-190955808D01*
X78820395Y-190000000D01*
X79179605Y-190000000D01*
X80135413Y-190955808D01*
X80399814Y-190860044D01*
X80540704Y-190570429D01*
X80622384Y-190258892D01*
X80634189Y-190062595D01*
X83858282Y-190062595D01*
X83902039Y-190381675D01*
X84007205Y-190686088D01*
X84100186Y-190860044D01*
X84364587Y-190955808D01*
X85320395Y-190000000D01*
X85679605Y-190000000D01*
X86635413Y-190955808D01*
X86899814Y-190860044D01*
X87040704Y-190570429D01*
X87122384Y-190258892D01*
X87141718Y-189937405D01*
X87097961Y-189618325D01*
X86992795Y-189313912D01*
X86899814Y-189139956D01*
X86635413Y-189044192D01*
X85679605Y-190000000D01*
X85320395Y-190000000D01*
X84364587Y-189044192D01*
X84100186Y-189139956D01*
X83959296Y-189429571D01*
X83877616Y-189741108D01*
X83858282Y-190062595D01*
X80634189Y-190062595D01*
X80641718Y-189937405D01*
X80597961Y-189618325D01*
X80492795Y-189313912D01*
X80399814Y-189139956D01*
X80135413Y-189044192D01*
X79179605Y-190000000D01*
X78820395Y-190000000D01*
X77864587Y-189044192D01*
X77600186Y-189139956D01*
X77459296Y-189429571D01*
X77377616Y-189741108D01*
X77358282Y-190062595D01*
X72134189Y-190062595D01*
X72141718Y-189937405D01*
X72097961Y-189618325D01*
X71992795Y-189313912D01*
X71899814Y-189139956D01*
X71635413Y-189044192D01*
X70679605Y-190000000D01*
X70320395Y-190000000D01*
X69364587Y-189044192D01*
X69100186Y-189139956D01*
X68959296Y-189429571D01*
X68877616Y-189741108D01*
X68858282Y-190062595D01*
X65634189Y-190062595D01*
X65641718Y-189937405D01*
X65597961Y-189618325D01*
X65492795Y-189313912D01*
X65399814Y-189139956D01*
X65135413Y-189044192D01*
X64179605Y-190000000D01*
X63820395Y-190000000D01*
X62864587Y-189044192D01*
X62600186Y-189139956D01*
X62459296Y-189429571D01*
X62377616Y-189741108D01*
X62358282Y-190062595D01*
X55660000Y-190062595D01*
X55660000Y-188864587D01*
X63044192Y-188864587D01*
X64000000Y-189820395D01*
X64955808Y-188864587D01*
X69544192Y-188864587D01*
X70500000Y-189820395D01*
X71455808Y-188864587D01*
X78044192Y-188864587D01*
X79000000Y-189820395D01*
X79955808Y-188864587D01*
X84544192Y-188864587D01*
X85500000Y-189820395D01*
X86455808Y-188864587D01*
X86360044Y-188600186D01*
X86070429Y-188459296D01*
X85758892Y-188377616D01*
X85437405Y-188358282D01*
X85118325Y-188402039D01*
X84813912Y-188507205D01*
X84639956Y-188600186D01*
X84544192Y-188864587D01*
X79955808Y-188864587D01*
X79860044Y-188600186D01*
X79570429Y-188459296D01*
X79258892Y-188377616D01*
X78937405Y-188358282D01*
X78618325Y-188402039D01*
X78313912Y-188507205D01*
X78139956Y-188600186D01*
X78044192Y-188864587D01*
X71455808Y-188864587D01*
X71360044Y-188600186D01*
X71070429Y-188459296D01*
X70758892Y-188377616D01*
X70437405Y-188358282D01*
X70118325Y-188402039D01*
X69813912Y-188507205D01*
X69639956Y-188600186D01*
X69544192Y-188864587D01*
X64955808Y-188864587D01*
X64860044Y-188600186D01*
X64570429Y-188459296D01*
X64258892Y-188377616D01*
X63937405Y-188358282D01*
X63618325Y-188402039D01*
X63313912Y-188507205D01*
X63139956Y-188600186D01*
X63044192Y-188864587D01*
X55660000Y-188864587D01*
X55660000Y-184900000D01*
X100261928Y-184900000D01*
X100261928Y-186900000D01*
X100274188Y-187024482D01*
X100310498Y-187144180D01*
X100369463Y-187254494D01*
X100448815Y-187351185D01*
X100545506Y-187430537D01*
X100655820Y-187489502D01*
X100775518Y-187525812D01*
X100900000Y-187538072D01*
X104100000Y-187538072D01*
X104224482Y-187525812D01*
X104344180Y-187489502D01*
X104454494Y-187430537D01*
X104551185Y-187351185D01*
X104630537Y-187254494D01*
X104689502Y-187144180D01*
X104725812Y-187024482D01*
X104738072Y-186900000D01*
X104738072Y-184900000D01*
X104725812Y-184775518D01*
X104689502Y-184655820D01*
X104630537Y-184545506D01*
X104551185Y-184448815D01*
X104454494Y-184369463D01*
X104344180Y-184310498D01*
X104224482Y-184274188D01*
X104100000Y-184261928D01*
X100900000Y-184261928D01*
X100775518Y-184274188D01*
X100655820Y-184310498D01*
X100545506Y-184369463D01*
X100448815Y-184448815D01*
X100369463Y-184545506D01*
X100310498Y-184655820D01*
X100274188Y-184775518D01*
X100261928Y-184900000D01*
X55660000Y-184900000D01*
X55660000Y-174762169D01*
X63085259Y-174762169D01*
X63085259Y-175237831D01*
X63178056Y-175704354D01*
X63360084Y-176143809D01*
X63624348Y-176539308D01*
X63960692Y-176875652D01*
X64356191Y-177139916D01*
X64795646Y-177321944D01*
X65262169Y-177414741D01*
X65737831Y-177414741D01*
X66204354Y-177321944D01*
X66643809Y-177139916D01*
X67039308Y-176875652D01*
X67375652Y-176539308D01*
X67639916Y-176143809D01*
X67821944Y-175704354D01*
X67914741Y-175237831D01*
X67914741Y-174769042D01*
X138155041Y-174769042D01*
X138155041Y-175230958D01*
X138245157Y-175683999D01*
X138421925Y-176110754D01*
X138678552Y-176494824D01*
X139005176Y-176821448D01*
X139389246Y-177078075D01*
X139816001Y-177254843D01*
X140269042Y-177344959D01*
X140730958Y-177344959D01*
X141183999Y-177254843D01*
X141610754Y-177078075D01*
X141994824Y-176821448D01*
X142321448Y-176494824D01*
X142578075Y-176110754D01*
X142754843Y-175683999D01*
X142844959Y-175230958D01*
X142844959Y-174769042D01*
X142754843Y-174316001D01*
X142578075Y-173889246D01*
X142321448Y-173505176D01*
X141994824Y-173178552D01*
X141610754Y-172921925D01*
X141183999Y-172745157D01*
X140730958Y-172655041D01*
X140269042Y-172655041D01*
X139816001Y-172745157D01*
X139389246Y-172921925D01*
X139005176Y-173178552D01*
X138678552Y-173505176D01*
X138421925Y-173889246D01*
X138245157Y-174316001D01*
X138155041Y-174769042D01*
X67914741Y-174769042D01*
X67914741Y-174762169D01*
X67821944Y-174295646D01*
X67639916Y-173856191D01*
X67375652Y-173460692D01*
X67039308Y-173124348D01*
X66643809Y-172860084D01*
X66204354Y-172678056D01*
X65737831Y-172585259D01*
X65262169Y-172585259D01*
X64795646Y-172678056D01*
X64356191Y-172860084D01*
X63960692Y-173124348D01*
X63624348Y-173460692D01*
X63360084Y-173856191D01*
X63178056Y-174295646D01*
X63085259Y-174762169D01*
X55660000Y-174762169D01*
X55660000Y-150950000D01*
X55911928Y-150950000D01*
X55911928Y-152650000D01*
X55924188Y-152774482D01*
X55960498Y-152894180D01*
X56019463Y-153004494D01*
X56098815Y-153101185D01*
X56195506Y-153180537D01*
X56305820Y-153239502D01*
X56425518Y-153275812D01*
X56550000Y-153288072D01*
X58250000Y-153288072D01*
X58374482Y-153275812D01*
X58494180Y-153239502D01*
X58604494Y-153180537D01*
X58701185Y-153101185D01*
X58780537Y-153004494D01*
X58839502Y-152894180D01*
X58875812Y-152774482D01*
X58888072Y-152650000D01*
X58888072Y-150950000D01*
X58875812Y-150825518D01*
X58839502Y-150705820D01*
X58780537Y-150595506D01*
X58701185Y-150498815D01*
X58604494Y-150419463D01*
X58494180Y-150360498D01*
X58421620Y-150338487D01*
X58553475Y-150206632D01*
X58715990Y-149963411D01*
X58827932Y-149693158D01*
X58885000Y-149406260D01*
X58885000Y-149113740D01*
X58827932Y-148826842D01*
X58715990Y-148556589D01*
X58553475Y-148313368D01*
X58346632Y-148106525D01*
X58172240Y-147990000D01*
X58346632Y-147873475D01*
X58553475Y-147666632D01*
X58715990Y-147423411D01*
X58827932Y-147153158D01*
X58885000Y-146866260D01*
X58885000Y-146573740D01*
X58827932Y-146286842D01*
X58715990Y-146016589D01*
X58553475Y-145773368D01*
X58346632Y-145566525D01*
X58164466Y-145444805D01*
X58281355Y-145375178D01*
X58497588Y-145180269D01*
X58671641Y-144946920D01*
X58796825Y-144684099D01*
X58841476Y-144536890D01*
X58720155Y-144307000D01*
X57527000Y-144307000D01*
X57527000Y-144327000D01*
X57273000Y-144327000D01*
X57273000Y-144307000D01*
X56079845Y-144307000D01*
X55958524Y-144536890D01*
X56003175Y-144684099D01*
X56128359Y-144946920D01*
X56302412Y-145180269D01*
X56518645Y-145375178D01*
X56635534Y-145444805D01*
X56453368Y-145566525D01*
X56246525Y-145773368D01*
X56084010Y-146016589D01*
X55972068Y-146286842D01*
X55915000Y-146573740D01*
X55915000Y-146866260D01*
X55972068Y-147153158D01*
X56084010Y-147423411D01*
X56246525Y-147666632D01*
X56453368Y-147873475D01*
X56627760Y-147990000D01*
X56453368Y-148106525D01*
X56246525Y-148313368D01*
X56084010Y-148556589D01*
X55972068Y-148826842D01*
X55915000Y-149113740D01*
X55915000Y-149406260D01*
X55972068Y-149693158D01*
X56084010Y-149963411D01*
X56246525Y-150206632D01*
X56378380Y-150338487D01*
X56305820Y-150360498D01*
X56195506Y-150419463D01*
X56098815Y-150498815D01*
X56019463Y-150595506D01*
X55960498Y-150705820D01*
X55924188Y-150825518D01*
X55911928Y-150950000D01*
X55660000Y-150950000D01*
X55660000Y-143823110D01*
X55958524Y-143823110D01*
X56079845Y-144053000D01*
X57273000Y-144053000D01*
X57273000Y-142859186D01*
X57527000Y-142859186D01*
X57527000Y-144053000D01*
X58720155Y-144053000D01*
X58841476Y-143823110D01*
X58822907Y-143761888D01*
X63082412Y-143761888D01*
X63082412Y-144238112D01*
X63175318Y-144705185D01*
X63357561Y-145145157D01*
X63622137Y-145541123D01*
X63958877Y-145877863D01*
X64354843Y-146142439D01*
X64794815Y-146324682D01*
X65261888Y-146417588D01*
X65738112Y-146417588D01*
X66205185Y-146324682D01*
X66645157Y-146142439D01*
X67041123Y-145877863D01*
X67377863Y-145541123D01*
X67642439Y-145145157D01*
X67824682Y-144705185D01*
X67917588Y-144238112D01*
X67917588Y-143769042D01*
X138155041Y-143769042D01*
X138155041Y-144230958D01*
X138245157Y-144683999D01*
X138421925Y-145110754D01*
X138678552Y-145494824D01*
X139005176Y-145821448D01*
X139389246Y-146078075D01*
X139816001Y-146254843D01*
X140269042Y-146344959D01*
X140730958Y-146344959D01*
X141183999Y-146254843D01*
X141610754Y-146078075D01*
X141994824Y-145821448D01*
X142321448Y-145494824D01*
X142578075Y-145110754D01*
X142754843Y-144683999D01*
X142844959Y-144230958D01*
X142844959Y-143769042D01*
X142754843Y-143316001D01*
X142578075Y-142889246D01*
X142321448Y-142505176D01*
X141994824Y-142178552D01*
X141610754Y-141921925D01*
X141183999Y-141745157D01*
X140730958Y-141655041D01*
X140269042Y-141655041D01*
X139816001Y-141745157D01*
X139389246Y-141921925D01*
X139005176Y-142178552D01*
X138678552Y-142505176D01*
X138421925Y-142889246D01*
X138245157Y-143316001D01*
X138155041Y-143769042D01*
X67917588Y-143769042D01*
X67917588Y-143761888D01*
X67824682Y-143294815D01*
X67642439Y-142854843D01*
X67377863Y-142458877D01*
X67041123Y-142122137D01*
X66645157Y-141857561D01*
X66205185Y-141675318D01*
X65738112Y-141582412D01*
X65261888Y-141582412D01*
X64794815Y-141675318D01*
X64354843Y-141857561D01*
X63958877Y-142122137D01*
X63622137Y-142458877D01*
X63357561Y-142854843D01*
X63175318Y-143294815D01*
X63082412Y-143761888D01*
X58822907Y-143761888D01*
X58796825Y-143675901D01*
X58671641Y-143413080D01*
X58497588Y-143179731D01*
X58281355Y-142984822D01*
X58031252Y-142835843D01*
X57756891Y-142738519D01*
X57527000Y-142859186D01*
X57273000Y-142859186D01*
X57043109Y-142738519D01*
X56768748Y-142835843D01*
X56518645Y-142984822D01*
X56302412Y-143179731D01*
X56128359Y-143413080D01*
X56003175Y-143675901D01*
X55958524Y-143823110D01*
X55660000Y-143823110D01*
X55660000Y-134416481D01*
X56763124Y-134416481D01*
X57075308Y-134865177D01*
X57671259Y-135185612D01*
X58318273Y-135383626D01*
X58991484Y-135451610D01*
X59665023Y-135386949D01*
X60313006Y-135192130D01*
X60486396Y-135100000D01*
X68061928Y-135100000D01*
X68061928Y-137100000D01*
X68074188Y-137224482D01*
X68110498Y-137344180D01*
X68169463Y-137454494D01*
X68248815Y-137551185D01*
X68345506Y-137630537D01*
X68455820Y-137689502D01*
X68575518Y-137725812D01*
X68700000Y-137738072D01*
X71300000Y-137738072D01*
X71424482Y-137725812D01*
X71544180Y-137689502D01*
X71654494Y-137630537D01*
X71751185Y-137551185D01*
X71830537Y-137454494D01*
X71889502Y-137344180D01*
X71925812Y-137224482D01*
X71938072Y-137100000D01*
X71938072Y-135100000D01*
X71925812Y-134975518D01*
X71889502Y-134855820D01*
X71830537Y-134745506D01*
X71751185Y-134648815D01*
X71654494Y-134569463D01*
X71544180Y-134510498D01*
X71424482Y-134474188D01*
X71300000Y-134461928D01*
X68700000Y-134461928D01*
X68575518Y-134474188D01*
X68455820Y-134510498D01*
X68345506Y-134569463D01*
X68248815Y-134648815D01*
X68169463Y-134745506D01*
X68110498Y-134855820D01*
X68074188Y-134975518D01*
X68061928Y-135100000D01*
X60486396Y-135100000D01*
X60910530Y-134874639D01*
X60924692Y-134865177D01*
X61236876Y-134416481D01*
X59000000Y-132179605D01*
X56763124Y-134416481D01*
X55660000Y-134416481D01*
X55660000Y-132821179D01*
X55807870Y-133313006D01*
X56125361Y-133910530D01*
X56134823Y-133924692D01*
X56583519Y-134236876D01*
X58820395Y-132000000D01*
X59179605Y-132000000D01*
X61416481Y-134236876D01*
X61865177Y-133924692D01*
X62185612Y-133328741D01*
X62383626Y-132681727D01*
X62451610Y-132008516D01*
X62431593Y-131800000D01*
X63661928Y-131800000D01*
X63661928Y-134400000D01*
X63674188Y-134524482D01*
X63710498Y-134644180D01*
X63769463Y-134754494D01*
X63848815Y-134851185D01*
X63945506Y-134930537D01*
X64055820Y-134989502D01*
X64175518Y-135025812D01*
X64300000Y-135038072D01*
X66300000Y-135038072D01*
X66424482Y-135025812D01*
X66544180Y-134989502D01*
X66654494Y-134930537D01*
X66751185Y-134851185D01*
X66830537Y-134754494D01*
X66889502Y-134644180D01*
X66925812Y-134524482D01*
X66936448Y-134416481D01*
X145763124Y-134416481D01*
X146075308Y-134865177D01*
X146671259Y-135185612D01*
X147318273Y-135383626D01*
X147991484Y-135451610D01*
X148665023Y-135386949D01*
X149313006Y-135192130D01*
X149910530Y-134874639D01*
X149924692Y-134865177D01*
X150236876Y-134416481D01*
X148000000Y-132179605D01*
X145763124Y-134416481D01*
X66936448Y-134416481D01*
X66938072Y-134400000D01*
X66938072Y-131800000D01*
X66925812Y-131675518D01*
X66889502Y-131555820D01*
X66830537Y-131445506D01*
X66751185Y-131348815D01*
X66654494Y-131269463D01*
X66544180Y-131210498D01*
X66424482Y-131174188D01*
X66300000Y-131161928D01*
X64300000Y-131161928D01*
X64175518Y-131174188D01*
X64055820Y-131210498D01*
X63945506Y-131269463D01*
X63848815Y-131348815D01*
X63769463Y-131445506D01*
X63710498Y-131555820D01*
X63674188Y-131675518D01*
X63661928Y-131800000D01*
X62431593Y-131800000D01*
X62386949Y-131334977D01*
X62316303Y-131100000D01*
X68061928Y-131100000D01*
X68074188Y-131224482D01*
X68110498Y-131344180D01*
X68169463Y-131454494D01*
X68248815Y-131551185D01*
X68345506Y-131630537D01*
X68455820Y-131689502D01*
X68575518Y-131725812D01*
X68700000Y-131738072D01*
X69714250Y-131735000D01*
X69873000Y-131576250D01*
X69873000Y-130227000D01*
X70127000Y-130227000D01*
X70127000Y-131576250D01*
X70285750Y-131735000D01*
X71300000Y-131738072D01*
X71424482Y-131725812D01*
X71544180Y-131689502D01*
X71654494Y-131630537D01*
X71751185Y-131551185D01*
X71830537Y-131454494D01*
X71889502Y-131344180D01*
X71925812Y-131224482D01*
X71938072Y-131100000D01*
X71935000Y-130385750D01*
X71776250Y-130227000D01*
X70127000Y-130227000D01*
X69873000Y-130227000D01*
X68223750Y-130227000D01*
X68065000Y-130385750D01*
X68061928Y-131100000D01*
X62316303Y-131100000D01*
X62192130Y-130686994D01*
X61906802Y-130150000D01*
X77611928Y-130150000D01*
X77611928Y-131850000D01*
X77624188Y-131974482D01*
X77660498Y-132094180D01*
X77719463Y-132204494D01*
X77798815Y-132301185D01*
X77895506Y-132380537D01*
X78005820Y-132439502D01*
X78125518Y-132475812D01*
X78250000Y-132488072D01*
X79950000Y-132488072D01*
X80074482Y-132475812D01*
X80194180Y-132439502D01*
X80304494Y-132380537D01*
X80401185Y-132301185D01*
X80480537Y-132204494D01*
X80539502Y-132094180D01*
X80561513Y-132021620D01*
X80693368Y-132153475D01*
X80936589Y-132315990D01*
X81206842Y-132427932D01*
X81493740Y-132485000D01*
X81786260Y-132485000D01*
X82073158Y-132427932D01*
X82343411Y-132315990D01*
X82586632Y-132153475D01*
X82793475Y-131946632D01*
X82910000Y-131772240D01*
X83026525Y-131946632D01*
X83233368Y-132153475D01*
X83476589Y-132315990D01*
X83746842Y-132427932D01*
X84033740Y-132485000D01*
X84326260Y-132485000D01*
X84613158Y-132427932D01*
X84883411Y-132315990D01*
X85126632Y-132153475D01*
X85333475Y-131946632D01*
X85450000Y-131772240D01*
X85566525Y-131946632D01*
X85773368Y-132153475D01*
X86016589Y-132315990D01*
X86286842Y-132427932D01*
X86573740Y-132485000D01*
X86866260Y-132485000D01*
X87153158Y-132427932D01*
X87423411Y-132315990D01*
X87666632Y-132153475D01*
X87873475Y-131946632D01*
X87990000Y-131772240D01*
X88106525Y-131946632D01*
X88313368Y-132153475D01*
X88556589Y-132315990D01*
X88826842Y-132427932D01*
X89113740Y-132485000D01*
X89406260Y-132485000D01*
X89693158Y-132427932D01*
X89963411Y-132315990D01*
X90206632Y-132153475D01*
X90413475Y-131946632D01*
X90530000Y-131772240D01*
X90646525Y-131946632D01*
X90853368Y-132153475D01*
X91096589Y-132315990D01*
X91366842Y-132427932D01*
X91653740Y-132485000D01*
X91946260Y-132485000D01*
X92233158Y-132427932D01*
X92503411Y-132315990D01*
X92746632Y-132153475D01*
X92953475Y-131946632D01*
X93070000Y-131772240D01*
X93186525Y-131946632D01*
X93393368Y-132153475D01*
X93636589Y-132315990D01*
X93906842Y-132427932D01*
X94193740Y-132485000D01*
X94486260Y-132485000D01*
X94773158Y-132427932D01*
X95043411Y-132315990D01*
X95286632Y-132153475D01*
X95493475Y-131946632D01*
X95610000Y-131772240D01*
X95726525Y-131946632D01*
X95933368Y-132153475D01*
X96176589Y-132315990D01*
X96446842Y-132427932D01*
X96733740Y-132485000D01*
X97026260Y-132485000D01*
X97313158Y-132427932D01*
X97583411Y-132315990D01*
X97826632Y-132153475D01*
X98033475Y-131946632D01*
X98150000Y-131772240D01*
X98266525Y-131946632D01*
X98473368Y-132153475D01*
X98716589Y-132315990D01*
X98986842Y-132427932D01*
X99273740Y-132485000D01*
X99566260Y-132485000D01*
X99853158Y-132427932D01*
X100123411Y-132315990D01*
X100366632Y-132153475D01*
X100573475Y-131946632D01*
X100690000Y-131772240D01*
X100806525Y-131946632D01*
X101013368Y-132153475D01*
X101256589Y-132315990D01*
X101526842Y-132427932D01*
X101813740Y-132485000D01*
X102106260Y-132485000D01*
X102393158Y-132427932D01*
X102663411Y-132315990D01*
X102906632Y-132153475D01*
X103113475Y-131946632D01*
X103230000Y-131772240D01*
X103346525Y-131946632D01*
X103553368Y-132153475D01*
X103796589Y-132315990D01*
X104066842Y-132427932D01*
X104353740Y-132485000D01*
X104646260Y-132485000D01*
X104933158Y-132427932D01*
X105203411Y-132315990D01*
X105446632Y-132153475D01*
X105653475Y-131946632D01*
X105770000Y-131772240D01*
X105886525Y-131946632D01*
X106093368Y-132153475D01*
X106336589Y-132315990D01*
X106606842Y-132427932D01*
X106893740Y-132485000D01*
X107186260Y-132485000D01*
X107473158Y-132427932D01*
X107743411Y-132315990D01*
X107986632Y-132153475D01*
X108193475Y-131946632D01*
X108310000Y-131772240D01*
X108426525Y-131946632D01*
X108633368Y-132153475D01*
X108876589Y-132315990D01*
X109146842Y-132427932D01*
X109433740Y-132485000D01*
X109726260Y-132485000D01*
X110013158Y-132427932D01*
X110283411Y-132315990D01*
X110526632Y-132153475D01*
X110733475Y-131946632D01*
X110850000Y-131772240D01*
X110966525Y-131946632D01*
X111173368Y-132153475D01*
X111416589Y-132315990D01*
X111686842Y-132427932D01*
X111973740Y-132485000D01*
X112266260Y-132485000D01*
X112553158Y-132427932D01*
X112823411Y-132315990D01*
X113066632Y-132153475D01*
X113273475Y-131946632D01*
X113390000Y-131772240D01*
X113506525Y-131946632D01*
X113713368Y-132153475D01*
X113956589Y-132315990D01*
X114226842Y-132427932D01*
X114513740Y-132485000D01*
X114806260Y-132485000D01*
X115093158Y-132427932D01*
X115363411Y-132315990D01*
X115606632Y-132153475D01*
X115813475Y-131946632D01*
X115930000Y-131772240D01*
X116046525Y-131946632D01*
X116253368Y-132153475D01*
X116496589Y-132315990D01*
X116766842Y-132427932D01*
X117053740Y-132485000D01*
X117346260Y-132485000D01*
X117633158Y-132427932D01*
X117903411Y-132315990D01*
X118146632Y-132153475D01*
X118353475Y-131946632D01*
X118470000Y-131772240D01*
X118586525Y-131946632D01*
X118793368Y-132153475D01*
X119036589Y-132315990D01*
X119306842Y-132427932D01*
X119593740Y-132485000D01*
X119886260Y-132485000D01*
X120173158Y-132427932D01*
X120443411Y-132315990D01*
X120686632Y-132153475D01*
X120893475Y-131946632D01*
X121015195Y-131764466D01*
X121084822Y-131881355D01*
X121279731Y-132097588D01*
X121513080Y-132271641D01*
X121775901Y-132396825D01*
X121923110Y-132441476D01*
X122153000Y-132320155D01*
X122153000Y-131127000D01*
X122407000Y-131127000D01*
X122407000Y-132320155D01*
X122636890Y-132441476D01*
X122784099Y-132396825D01*
X123046920Y-132271641D01*
X123280269Y-132097588D01*
X123475178Y-131881355D01*
X123550000Y-131755745D01*
X123624822Y-131881355D01*
X123819731Y-132097588D01*
X124053080Y-132271641D01*
X124315901Y-132396825D01*
X124463110Y-132441476D01*
X124693000Y-132320155D01*
X124693000Y-131127000D01*
X124947000Y-131127000D01*
X124947000Y-132320155D01*
X125176890Y-132441476D01*
X125324099Y-132396825D01*
X125586920Y-132271641D01*
X125820269Y-132097588D01*
X126015178Y-131881355D01*
X126090000Y-131755745D01*
X126164822Y-131881355D01*
X126359731Y-132097588D01*
X126593080Y-132271641D01*
X126855901Y-132396825D01*
X127003110Y-132441476D01*
X127233000Y-132320155D01*
X127233000Y-131127000D01*
X127487000Y-131127000D01*
X127487000Y-132320155D01*
X127716890Y-132441476D01*
X127864099Y-132396825D01*
X128126920Y-132271641D01*
X128360269Y-132097588D01*
X128455909Y-131991484D01*
X144548390Y-131991484D01*
X144613051Y-132665023D01*
X144807870Y-133313006D01*
X145125361Y-133910530D01*
X145134823Y-133924692D01*
X145583519Y-134236876D01*
X147820395Y-132000000D01*
X145583519Y-129763124D01*
X145134823Y-130075308D01*
X144814388Y-130671259D01*
X144616374Y-131318273D01*
X144548390Y-131991484D01*
X128455909Y-131991484D01*
X128555178Y-131881355D01*
X128704157Y-131631252D01*
X128801481Y-131356891D01*
X128680814Y-131127000D01*
X127487000Y-131127000D01*
X127233000Y-131127000D01*
X124947000Y-131127000D01*
X124693000Y-131127000D01*
X122407000Y-131127000D01*
X122153000Y-131127000D01*
X122133000Y-131127000D01*
X122133000Y-130873000D01*
X122153000Y-130873000D01*
X122153000Y-129679845D01*
X122407000Y-129679845D01*
X122407000Y-130873000D01*
X124693000Y-130873000D01*
X124693000Y-129679845D01*
X124947000Y-129679845D01*
X124947000Y-130873000D01*
X127233000Y-130873000D01*
X127233000Y-129679845D01*
X127487000Y-129679845D01*
X127487000Y-130873000D01*
X128680814Y-130873000D01*
X128801481Y-130643109D01*
X128704157Y-130368748D01*
X128555178Y-130118645D01*
X128360269Y-129902412D01*
X128126920Y-129728359D01*
X127864099Y-129603175D01*
X127716890Y-129558524D01*
X127487000Y-129679845D01*
X127233000Y-129679845D01*
X127003110Y-129558524D01*
X126855901Y-129603175D01*
X126593080Y-129728359D01*
X126359731Y-129902412D01*
X126164822Y-130118645D01*
X126090000Y-130244255D01*
X126015178Y-130118645D01*
X125820269Y-129902412D01*
X125586920Y-129728359D01*
X125324099Y-129603175D01*
X125176890Y-129558524D01*
X124947000Y-129679845D01*
X124693000Y-129679845D01*
X124463110Y-129558524D01*
X124315901Y-129603175D01*
X124053080Y-129728359D01*
X123819731Y-129902412D01*
X123624822Y-130118645D01*
X123550000Y-130244255D01*
X123475178Y-130118645D01*
X123280269Y-129902412D01*
X123046920Y-129728359D01*
X122784099Y-129603175D01*
X122636890Y-129558524D01*
X122407000Y-129679845D01*
X122153000Y-129679845D01*
X121923110Y-129558524D01*
X121775901Y-129603175D01*
X121513080Y-129728359D01*
X121279731Y-129902412D01*
X121084822Y-130118645D01*
X121015195Y-130235534D01*
X120893475Y-130053368D01*
X120686632Y-129846525D01*
X120443411Y-129684010D01*
X120173158Y-129572068D01*
X119886260Y-129515000D01*
X119593740Y-129515000D01*
X119306842Y-129572068D01*
X119036589Y-129684010D01*
X118793368Y-129846525D01*
X118586525Y-130053368D01*
X118470000Y-130227760D01*
X118353475Y-130053368D01*
X118146632Y-129846525D01*
X117903411Y-129684010D01*
X117633158Y-129572068D01*
X117346260Y-129515000D01*
X117053740Y-129515000D01*
X116766842Y-129572068D01*
X116496589Y-129684010D01*
X116253368Y-129846525D01*
X116046525Y-130053368D01*
X115930000Y-130227760D01*
X115813475Y-130053368D01*
X115606632Y-129846525D01*
X115363411Y-129684010D01*
X115093158Y-129572068D01*
X114806260Y-129515000D01*
X114513740Y-129515000D01*
X114226842Y-129572068D01*
X113956589Y-129684010D01*
X113713368Y-129846525D01*
X113506525Y-130053368D01*
X113390000Y-130227760D01*
X113273475Y-130053368D01*
X113066632Y-129846525D01*
X112823411Y-129684010D01*
X112553158Y-129572068D01*
X112266260Y-129515000D01*
X111973740Y-129515000D01*
X111686842Y-129572068D01*
X111416589Y-129684010D01*
X111173368Y-129846525D01*
X110966525Y-130053368D01*
X110850000Y-130227760D01*
X110733475Y-130053368D01*
X110526632Y-129846525D01*
X110283411Y-129684010D01*
X110013158Y-129572068D01*
X109726260Y-129515000D01*
X109433740Y-129515000D01*
X109146842Y-129572068D01*
X108876589Y-129684010D01*
X108633368Y-129846525D01*
X108426525Y-130053368D01*
X108310000Y-130227760D01*
X108193475Y-130053368D01*
X107986632Y-129846525D01*
X107743411Y-129684010D01*
X107473158Y-129572068D01*
X107186260Y-129515000D01*
X106893740Y-129515000D01*
X106606842Y-129572068D01*
X106336589Y-129684010D01*
X106093368Y-129846525D01*
X105886525Y-130053368D01*
X105770000Y-130227760D01*
X105653475Y-130053368D01*
X105446632Y-129846525D01*
X105203411Y-129684010D01*
X104933158Y-129572068D01*
X104646260Y-129515000D01*
X104353740Y-129515000D01*
X104066842Y-129572068D01*
X103796589Y-129684010D01*
X103553368Y-129846525D01*
X103346525Y-130053368D01*
X103230000Y-130227760D01*
X103113475Y-130053368D01*
X102906632Y-129846525D01*
X102663411Y-129684010D01*
X102393158Y-129572068D01*
X102106260Y-129515000D01*
X101813740Y-129515000D01*
X101526842Y-129572068D01*
X101256589Y-129684010D01*
X101013368Y-129846525D01*
X100806525Y-130053368D01*
X100690000Y-130227760D01*
X100573475Y-130053368D01*
X100366632Y-129846525D01*
X100123411Y-129684010D01*
X99853158Y-129572068D01*
X99566260Y-129515000D01*
X99273740Y-129515000D01*
X98986842Y-129572068D01*
X98716589Y-129684010D01*
X98473368Y-129846525D01*
X98266525Y-130053368D01*
X98150000Y-130227760D01*
X98033475Y-130053368D01*
X97826632Y-129846525D01*
X97583411Y-129684010D01*
X97313158Y-129572068D01*
X97026260Y-129515000D01*
X96733740Y-129515000D01*
X96446842Y-129572068D01*
X96176589Y-129684010D01*
X95933368Y-129846525D01*
X95726525Y-130053368D01*
X95610000Y-130227760D01*
X95493475Y-130053368D01*
X95286632Y-129846525D01*
X95043411Y-129684010D01*
X94773158Y-129572068D01*
X94486260Y-129515000D01*
X94193740Y-129515000D01*
X93906842Y-129572068D01*
X93636589Y-129684010D01*
X93393368Y-129846525D01*
X93186525Y-130053368D01*
X93070000Y-130227760D01*
X92953475Y-130053368D01*
X92746632Y-129846525D01*
X92503411Y-129684010D01*
X92233158Y-129572068D01*
X91946260Y-129515000D01*
X91653740Y-129515000D01*
X91366842Y-129572068D01*
X91096589Y-129684010D01*
X90853368Y-129846525D01*
X90646525Y-130053368D01*
X90530000Y-130227760D01*
X90413475Y-130053368D01*
X90206632Y-129846525D01*
X89963411Y-129684010D01*
X89693158Y-129572068D01*
X89406260Y-129515000D01*
X89113740Y-129515000D01*
X88826842Y-129572068D01*
X88556589Y-129684010D01*
X88313368Y-129846525D01*
X88106525Y-130053368D01*
X87990000Y-130227760D01*
X87873475Y-130053368D01*
X87666632Y-129846525D01*
X87423411Y-129684010D01*
X87153158Y-129572068D01*
X86866260Y-129515000D01*
X86573740Y-129515000D01*
X86286842Y-129572068D01*
X86016589Y-129684010D01*
X85773368Y-129846525D01*
X85566525Y-130053368D01*
X85450000Y-130227760D01*
X85333475Y-130053368D01*
X85126632Y-129846525D01*
X84883411Y-129684010D01*
X84613158Y-129572068D01*
X84326260Y-129515000D01*
X84033740Y-129515000D01*
X83746842Y-129572068D01*
X83476589Y-129684010D01*
X83233368Y-129846525D01*
X83026525Y-130053368D01*
X82910000Y-130227760D01*
X82793475Y-130053368D01*
X82586632Y-129846525D01*
X82343411Y-129684010D01*
X82073158Y-129572068D01*
X81786260Y-129515000D01*
X81493740Y-129515000D01*
X81206842Y-129572068D01*
X80936589Y-129684010D01*
X80693368Y-129846525D01*
X80561513Y-129978380D01*
X80539502Y-129905820D01*
X80480537Y-129795506D01*
X80401185Y-129698815D01*
X80304494Y-129619463D01*
X80194180Y-129560498D01*
X80074482Y-129524188D01*
X79950000Y-129511928D01*
X78250000Y-129511928D01*
X78125518Y-129524188D01*
X78005820Y-129560498D01*
X77895506Y-129619463D01*
X77798815Y-129698815D01*
X77719463Y-129795506D01*
X77660498Y-129905820D01*
X77624188Y-130025518D01*
X77611928Y-130150000D01*
X61906802Y-130150000D01*
X61874639Y-130089470D01*
X61865177Y-130075308D01*
X61416481Y-129763124D01*
X59179605Y-132000000D01*
X58820395Y-132000000D01*
X56583519Y-129763124D01*
X56134823Y-130075308D01*
X55814388Y-130671259D01*
X55660000Y-131175724D01*
X55660000Y-131032279D01*
X55707670Y-130546107D01*
X55839489Y-130109502D01*
X56053600Y-129706815D01*
X56341848Y-129353388D01*
X56693261Y-129062673D01*
X57094439Y-128845758D01*
X57530113Y-128710894D01*
X58014344Y-128660000D01*
X58178821Y-128660000D01*
X57686994Y-128807870D01*
G37*
%TD.AperFunction*%
%TD*%
M02*
