M48
; DRILL file {KiCad (5.1.12)-1} date 04/15/24 13:26:33
; FORMAT={-:-/ absolute / inch / decimal}
; #@! TF.CreationDate,2024-04-15T13:26:33-04:00
; #@! TF.GenerationSoftware,Kicad,Pcbnew,(5.1.12)-1
; #@! TF.FileFunction,Plated,1,2,PTH
FMAT,2
INCH
T1C0.0197
T2C0.0394
T3C0.0433
T4C0.0591
T5C0.1260
%
G90
G05
T1
X2.2835Y-5.4291
X2.3307Y-8.3661
X2.374Y-8.0906
X2.4449Y-7.1102
X2.4764Y-6.0551
X2.5276Y-6.4843
X2.5984Y-8.4528
X2.6417Y-7.5433
X2.6535Y-6.1299
X2.7441Y-7.8307
X2.8031Y-5.6063
X2.8504Y-7.2362
X2.8543Y-8.7441
X2.8819Y-6.4488
X2.9449Y-7.9252
X2.9567Y-7.0236
X2.9606Y-6.752
X3.0079Y-6.0394
X3.0669Y-8.5906
X3.0827Y-5.5827
X3.2244Y-7.9567
X3.3858Y-6.7441
X3.4134Y-6.4094
X3.4134Y-8.4764
X3.4764Y-5.9685
X3.5394Y-5.563
X3.5945Y-6.122
X3.626Y-6.374
X3.6772Y-8.0118
X3.8504Y-7.9843
X3.8583Y-5.378
X3.8622Y-5.7953
X3.8701Y-8.6142
X3.9764Y-7.9685
X4.0039Y-6.1378
X4.0079Y-5.7008
X4.0354Y-7.5669
X4.0591Y-6.815
X4.0709Y-7.1339
X4.1496Y-8.4803
X4.185Y-8.1063
X4.2913Y-5.311
X4.3307Y-5.9528
X4.3661Y-8.5551
X4.3937Y-7.8228
X4.4016Y-6.5079
X4.4213Y-7.1929
X4.4921Y-6.8031
X4.5197Y-7.6496
X4.5315Y-7.9961
X4.6339Y-8.2835
X4.7047Y-8.063
X4.7717Y-7.126
X4.8071Y-7.5591
X4.8268Y-7.3858
X4.8622Y-7.8425
X4.8819Y-5.3543
X4.8858Y-5.689
X4.9016Y-6.8583
X4.9134Y-6.4606
X4.937Y-5.9055
X4.9646Y-8.4528
X5.0472Y-6.2323
X5.0748Y-6.7205
X5.1299Y-7.6929
X5.1496Y-6.9803
X5.1496Y-7.4843
X5.1654Y-7.9961
X5.1811Y-8.252
X5.2205Y-5.3386
X5.2835Y-5.8583
X5.3307Y-8.5669
X5.3465Y-8.7795
X5.4961Y-6.0472
X5.5394Y-6.5118
X5.626Y-5.3386
X5.6614Y-8.2244
X5.7244Y-7.1024
X5.7795Y-7.9567
X5.8071Y-6.689
X5.815Y-5.8189
T2
X2.2598Y-5.6764
X2.2598Y-5.7764
X2.2598Y-5.8764
X2.2598Y-5.9764
X3.1102Y-8.7402
X3.1142Y-5.1575
X3.2102Y-8.7402
X3.2142Y-5.1575
X3.3102Y-8.7402
X3.3142Y-5.1575
X3.4102Y-8.7402
X3.4142Y-5.1575
X3.5102Y-8.7402
X3.5142Y-5.1575
X3.6102Y-8.7402
X3.6142Y-5.1575
X3.7102Y-8.7402
X3.7142Y-5.1575
X3.7402Y-7.4409
X3.7402Y-7.5394
X3.7402Y-7.6378
X3.8102Y-8.7402
X3.8142Y-5.1575
X3.9102Y-8.7402
X3.9142Y-5.1575
X4.0102Y-8.7402
X4.0142Y-5.1575
X4.1102Y-8.7402
X4.1142Y-5.1575
X4.2102Y-8.7402
X4.2142Y-5.1575
X4.3102Y-8.7402
X4.311Y-7.4409
X4.311Y-7.6378
X4.3142Y-5.1575
X4.4102Y-8.7402
X4.4142Y-5.1575
X4.5102Y-8.7402
X4.5142Y-5.1575
X4.6102Y-8.7402
X4.6142Y-5.1575
X4.7102Y-8.7402
X4.7142Y-5.1575
X4.8102Y-8.7402
X4.8142Y-5.1575
X4.9102Y-8.7402
X4.9142Y-5.1575
X5.0102Y-8.7402
X5.0142Y-5.1575
T3
X2.5197Y-7.4803
X2.5197Y-7.6575
X2.7756Y-7.4803
X2.7756Y-7.6575
X3.1102Y-7.4803
X3.1102Y-7.6575
X3.3661Y-7.4803
X3.3661Y-7.6575
X4.685Y-7.4803
X4.685Y-7.6575
X4.9409Y-7.4803
X4.9409Y-7.6575
X5.315Y-7.4803
X5.315Y-7.6575
X5.5709Y-7.4803
X5.5709Y-7.6575
T5
X2.3228Y-5.1969
X2.3228Y-8.7008
X5.8268Y-5.1969
X5.8268Y-8.7008
T2
G00X2.5709Y-5.2283
M15
G01X2.5709Y-5.252
M16
G05
G00X2.7441Y-5.122
M15
G01X2.7677Y-5.122
M16
G05
G00X2.7441Y-5.3583
M15
G01X2.7677Y-5.3583
M16
G05
T4
G00X4.0098Y-7.3189
M15
G01X4.061Y-7.3189
M16
G05
G00X4.0098Y-7.7598
M15
G01X4.061Y-7.7598
M16
G05
T0
M30
