%TF.GenerationSoftware,KiCad,Pcbnew,(5.1.12)-1*%
%TF.CreationDate,2024-04-15T13:26:30-04:00*%
%TF.ProjectId,QO100_TX,514f3130-305f-4545-982e-6b696361645f,rev?*%
%TF.SameCoordinates,Original*%
%TF.FileFunction,Legend,Bot*%
%TF.FilePolarity,Positive*%
%FSLAX46Y46*%
G04 Gerber Fmt 4.6, Leading zero omitted, Abs format (unit mm)*
G04 Created by KiCad (PCBNEW (5.1.12)-1) date 2024-04-15 13:26:30*
%MOMM*%
%LPD*%
G01*
G04 APERTURE LIST*
%ADD10C,0.120000*%
%ADD11C,0.150000*%
G04 APERTURE END LIST*
D10*
%TO.C,J2*%
X128590000Y-220670000D02*
X128590000Y-223330000D01*
X80270000Y-220670000D02*
X128590000Y-220670000D01*
X80270000Y-223330000D02*
X128590000Y-223330000D01*
X80270000Y-220670000D02*
X80270000Y-223330000D01*
X79000000Y-220670000D02*
X77670000Y-220670000D01*
X77670000Y-220670000D02*
X77670000Y-222000000D01*
%TO.C,J1*%
X128690000Y-129670000D02*
X128690000Y-132330000D01*
X80370000Y-129670000D02*
X128690000Y-129670000D01*
X80370000Y-132330000D02*
X128690000Y-132330000D01*
X80370000Y-129670000D02*
X80370000Y-132330000D01*
X79100000Y-129670000D02*
X77770000Y-129670000D01*
X77770000Y-129670000D02*
X77770000Y-131000000D01*
%TO.C,J2*%
D11*
X76122380Y-221666666D02*
X76836666Y-221666666D01*
X76979523Y-221619047D01*
X77074761Y-221523809D01*
X77122380Y-221380952D01*
X77122380Y-221285714D01*
X76217619Y-222095238D02*
X76170000Y-222142857D01*
X76122380Y-222238095D01*
X76122380Y-222476190D01*
X76170000Y-222571428D01*
X76217619Y-222619047D01*
X76312857Y-222666666D01*
X76408095Y-222666666D01*
X76550952Y-222619047D01*
X77122380Y-222047619D01*
X77122380Y-222666666D01*
%TO.C,J1*%
X76222380Y-130666666D02*
X76936666Y-130666666D01*
X77079523Y-130619047D01*
X77174761Y-130523809D01*
X77222380Y-130380952D01*
X77222380Y-130285714D01*
X77222380Y-131666666D02*
X77222380Y-131095238D01*
X77222380Y-131380952D02*
X76222380Y-131380952D01*
X76365238Y-131285714D01*
X76460476Y-131190476D01*
X76508095Y-131095238D01*
%TD*%
M02*
